<svg xmlns="http://www.w3.org/2000/svg" xmlns:xlink="http://www.w3.org/1999/xlink" viewBox="0 0 1200 800"><defs><style>.cls-1{fill:none;}.cls-2{isolation:isolate;}.cls-3{fill:#1f1f23;}.cls-4,.cls-5,.cls-9{opacity:0.5;}.cls-4,.cls-5{mix-blend-mode:multiply;}.cls-4{fill:url(#linear-gradient);}.cls-5{fill:url(#linear-gradient-2);}.cls-6{opacity:0.4;}.cls-7{clip-path:url(#clip-path);}.cls-8{fill:url(#linear-gradient-3);}.cls-9{fill:url(#linear-gradient-4);}.cls-10{fill:url(#linear-gradient-5);}.cls-11{fill:url(#linear-gradient-6);}.cls-12{fill:url(#linear-gradient-7);}.cls-13{fill:url(#linear-gradient-8);}</style><linearGradient id="linear-gradient" x1="1056.13" y1="-56.13" x2="436.18" y2="563.82" gradientUnits="userSpaceOnUse"><stop offset="0" stop-color="#060607" stop-opacity="0.5"/><stop offset="1" stop-color="#fff" stop-opacity="0"/></linearGradient><linearGradient id="linear-gradient-2" x1="600" y1="13.5" x2="600" y2="406.6" gradientTransform="translate(1200 800) rotate(-180)" xlink:href="#linear-gradient"/><clipPath id="clip-path"><rect class="cls-1" width="1200" height="800"/></clipPath><linearGradient id="linear-gradient-3" x1="1887.36" y1="243.28" x2="2414.49" y2="243.28" gradientTransform="matrix(1.74, -0.07, 0.07, -1.74, -2550.2, 1147.39)" gradientUnits="userSpaceOnUse"><stop offset="0"/><stop offset="0.14" stop-opacity="0.63"/><stop offset="1" stop-opacity="0"/></linearGradient><linearGradient id="linear-gradient-4" x1="1251.24" y1="601.94" x2="1672.94" y2="601.94" gradientTransform="matrix(-1.74, -0.07, -0.07, -1.74, 2583.62, 1147.39)" xlink:href="#linear-gradient-3"/><linearGradient id="linear-gradient-5" x1="921.37" y1="111.36" x2="1072.34" y2="111.36" gradientTransform="translate(90.68 453.55) scale(1 1.32)" xlink:href="#linear-gradient-3"/><linearGradient id="linear-gradient-6" x1="1876.82" y1="508.11" x2="2403.95" y2="508.11" xlink:href="#linear-gradient-3"/><linearGradient id="linear-gradient-7" x1="1866.08" y1="437.15" x2="2035.12" y2="437.15" xlink:href="#linear-gradient-3"/><linearGradient id="linear-gradient-8" x1="-25.15" y1="416.76" x2="38.73" y2="416.76" gradientTransform="translate(41.66 -1067.28) scale(1 3.14)" xlink:href="#linear-gradient-3"/></defs><title>bg</title><g class="cls-2"><g id="Background"><rect class="cls-3" width="1200" height="800"/><rect class="cls-4" width="1200" height="800"/><rect class="cls-5" width="1200" height="800" transform="translate(1200 800) rotate(180)"/></g><g id="Graphic_Element" data-name="Graphic Element"><g class="cls-6"><g class="cls-7"><polygon class="cls-8" points="1206.02 116.13 735.19 581.95 1206.02 1035.25 1676.86 581.95 1206.02 116.13"/><polygon class="cls-9" points="0 -367.64 376.67 5.01 0 367.64 -376.67 5.01 0 -367.64"/><rect class="cls-10" x="1010.03" y="177.01" width="155.42" height="848.13" transform="translate(743.61 -593.1) rotate(45)"/><polygon class="cls-11" points="1206.02 -343.42 735.19 122.39 1206.02 575.69 1676.86 122.39 1206.02 -343.42"/><polygon class="cls-12" points="870.54 105.27 719.55 254.64 870.54 400 1021.52 254.64 870.54 105.27"/><rect class="cls-13" x="15.66" y="-184.94" width="65.76" height="849.77" transform="translate(183.88 35.95) rotate(45)"/></g></g></g></g></svg>