<svg width="84" height="84" viewBox="0 0 84 84" fill="none" xmlns="http://www.w3.org/2000/svg">
<path d="M29.5 20.1666H28.5V21.1666V62.8333V63.8333H29.5H37.8334H38.8334V62.8333V47.1666H40.4227L45.2089 63.1207L45.4227 63.8333H46.1667H54.5H55.8425L55.4582 62.547L50.5391 46.0841C53.5326 44.5169 55.5 41.4248 55.5 37.8333V29.5C55.5 27.0246 54.5167 24.6507 52.7664 22.9003C51.016 21.15 48.6421 20.1666 46.1667 20.1666H29.5ZM45.1667 30.5V36.8333H38.8334V30.5H45.1667ZM42 1.33331C47.3405 1.33331 52.6286 2.38519 57.5625 4.42888C62.4964 6.47257 66.9795 9.46805 70.7557 13.2443C74.532 17.0206 77.5275 21.5036 79.5711 26.4375C81.6148 31.3714 82.6667 36.6596 82.6667 42C82.6667 52.7854 78.3822 63.1292 70.7557 70.7557C63.1292 78.3821 52.7855 82.6666 42 82.6666C36.6596 82.6666 31.3715 81.6148 26.4376 79.5711C21.5037 77.5274 17.0206 74.5319 13.2444 70.7557C5.61789 63.1292 1.33337 52.7854 1.33337 42C1.33337 31.2145 5.61789 20.8708 13.2444 13.2443C20.8708 5.61782 31.2146 1.33331 42 1.33331Z" fill="black" stroke="white" stroke-width="2"/>
</svg>
