<svg width="300" height="300" viewBox="0 0 300 300" fill="none" xmlns="http://www.w3.org/2000/svg">
<path d="M52.5541 137.136L44.6821 137.298L40.6861 137.37C39.3481 137.37 38.0041 137.37 36.6661 137.4H36.4021V137.136L36.3661 130.422V130.116H36.6661L44.6101 130.152C47.2621 130.152 49.9081 130.218 52.5541 130.248H52.7221V130.41C52.7221 131.544 52.6681 132.678 52.6441 133.8L52.5541 137.136ZM52.5541 137.136L52.4701 133.74C52.4701 132.624 52.4041 131.52 52.3921 130.422L52.5541 130.584C49.9081 130.614 47.2621 130.68 44.6101 130.68L36.6661 130.722L36.9661 130.422V137.136L36.6961 136.866C38.0041 136.866 39.3121 136.866 40.6261 136.866L44.5741 136.938L52.5541 137.136Z" fill="#EBEBEB"/>
<path d="M43.692 145.602L35.82 145.764L31.824 145.836C30.486 145.836 29.142 145.836 27.804 145.866H27.54V145.602L27.504 138.888V138.6H27.804L35.748 138.636C38.394 138.636 41.046 138.702 43.692 138.732H43.86V138.894C43.86 140.028 43.812 141.162 43.782 142.284L43.692 145.602ZM43.692 145.602L43.608 142.2C43.578 141.084 43.542 139.98 43.53 138.882L43.692 139.044C41.046 139.074 38.394 139.14 35.748 139.14L27.804 139.2L28.104 138.906L28.074 145.62L27.804 145.35C29.112 145.35 30.42 145.35 31.734 145.38L35.682 145.452L43.692 145.602Z" fill="#EBEBEB"/>
<path d="M272.196 145.602L264.318 145.764L260.322 145.836C258.99 145.836 257.646 145.836 256.308 145.866H256.038V145.602L256.008 138.888V138.6H256.308L264.252 138.636C266.898 138.636 269.55 138.702 272.196 138.732H272.358V138.894C272.358 140.028 272.31 141.162 272.28 142.284L272.196 145.602ZM272.196 145.602L272.112 142.206C272.112 141.09 272.04 139.986 272.034 138.888L272.196 139.05C269.55 139.08 266.898 139.146 264.252 139.146L256.308 139.182L256.608 138.888L256.572 145.602L256.308 145.332C257.616 145.332 258.924 145.332 260.232 145.362L264.18 145.434L272.196 145.602Z" fill="#EBEBEB"/>
<path d="M263.334 26.52L255.456 26.688L251.46 26.754C250.128 26.754 248.784 26.754 247.446 26.79H247.2V26.52V19.806V19.506H247.506L255.45 19.542C258.096 19.542 260.742 19.614 263.394 19.644H263.556V19.8C263.556 20.94 263.502 22.074 263.478 23.19L263.334 26.52ZM263.334 26.52L263.25 23.13C263.22 22.008 263.178 20.904 263.166 19.806L263.334 19.968C260.682 19.968 258.036 20.064 255.39 20.07L247.446 20.106L247.746 19.806L247.71 26.52L247.446 26.25C248.754 26.25 250.056 26.25 251.37 26.286L255.318 26.352L263.334 26.52Z" fill="#EBEBEB"/>
<path d="M272.196 34.986L264.318 35.154L260.322 35.22C258.99 35.22 257.646 35.22 256.308 35.256H256.038V34.986L256.008 28.272V27.972H256.308L264.252 28.008C266.898 28.008 269.55 28.08 272.196 28.11H272.358V28.272C272.358 29.412 272.31 30.546 272.28 31.662L272.196 34.986ZM272.196 34.986L272.112 31.596C272.112 30.474 272.04 29.37 272.034 28.272L272.196 28.434C269.55 28.434 266.898 28.53 264.252 28.536L256.308 28.572L256.608 28.272L256.572 34.986L256.308 34.716C257.616 34.716 258.924 34.716 260.232 34.752L264.18 34.818L272.196 34.986Z" fill="#EBEBEB"/>
<path d="M52.5541 26.52L44.6821 26.688L40.6861 26.754C39.3481 26.754 38.0041 26.754 36.6661 26.79H36.4021V26.52L36.3661 19.8V19.5H36.6661L44.6101 19.536C47.2621 19.536 49.9081 19.608 52.5541 19.638H52.7221V19.8C52.7221 20.94 52.6681 22.074 52.6441 23.19L52.5541 26.52ZM52.5541 26.52L52.4701 23.13C52.4701 22.008 52.4041 20.904 52.3921 19.806L52.5541 19.968C49.9081 19.968 47.2621 20.064 44.6101 20.07L36.6661 20.106L36.9661 19.806V26.52L36.6961 26.25C38.0041 26.25 39.3121 26.25 40.6261 26.286L44.5741 26.352L52.5541 26.52Z" fill="#EBEBEB"/>
<path d="M250.584 0H249.984V56.694H250.584V0Z" fill="#C7C7C7"/>
<path d="M225.45 80.64L227.442 85.032H273.138L275.13 80.64L255.678 67.176H244.902L225.45 80.64Z" fill="#EBEBEB"/>
<path d="M243.552 54.204L244.902 67.176H255.678L257.028 54.204H243.552Z" fill="#DBDBDB"/>
<path d="M225.45 80.64L227.448 85.032H273.138L275.13 80.64H225.45Z" fill="#DBDBDB"/>
<path d="M197.25 0H196.65V42.528H197.25V0Z" fill="#C7C7C7"/>
<path d="M172.11 66.468L174.108 70.86H219.798L221.79 66.468L202.338 53.004H191.562L172.11 66.468Z" fill="#EBEBEB"/>
<path d="M190.212 40.032L191.562 53.004H202.338L203.688 40.032H190.212Z" fill="#DBDBDB"/>
<path d="M172.116 66.474L174.114 70.866H219.798L221.79 66.474H172.116Z" fill="#DBDBDB"/>
<path d="M47.028 70.392C48.7224 71.0734 50.5152 71.4786 52.338 71.592C56.7072 71.8771 61.0232 70.5046 64.4252 67.7482C67.8271 64.9919 70.0648 61.0543 70.6919 56.721C71.319 52.3876 70.2894 47.9772 67.8084 44.3695C65.3274 40.7618 61.5775 38.222 57.3068 37.2569C53.036 36.2918 48.5584 36.9722 44.7672 39.1624C40.9759 41.3527 38.1498 44.8918 36.8525 49.0736C35.5553 53.2555 35.8823 57.7727 37.7684 61.7241C39.6544 65.6755 42.9609 68.7706 47.028 70.392V70.392Z" fill="#EBEBEB"/>
<path d="M47.8321 53.19C48.0184 54.2199 48.506 55.1714 49.2331 55.9241C49.9603 56.6769 50.8943 57.1972 51.9171 57.4192C52.9399 57.6412 54.0056 57.5549 54.9793 57.1712C55.9531 56.7876 56.7912 56.1238 57.3878 55.2638C57.9843 54.4038 58.3124 53.3863 58.3307 52.3398C58.3489 51.2934 58.0564 50.265 57.4903 49.3847C56.9241 48.5045 56.1096 47.8119 55.1498 47.3945C54.19 46.9772 53.128 46.8538 52.0981 47.04C50.7175 47.2912 49.493 48.0798 48.6932 49.2328C47.8934 50.3857 47.5837 51.8089 47.8321 53.19Z" fill="white"/>
<path d="M46.638 68.2441L47.028 70.3921C48.7224 71.0735 50.5152 71.4787 52.338 71.5921C54.642 71.7372 56.9519 71.4197 59.1313 70.6581C61.3107 69.8966 63.3157 68.7066 65.028 67.1581L64.638 65.0161C64.2059 62.6291 62.8434 60.5116 60.8501 59.1292C58.8567 57.7469 56.3959 57.213 54.009 57.6451C51.622 58.0771 49.5045 59.4396 48.1221 61.433C46.7398 63.4263 46.2059 65.8871 46.638 68.2741V68.2441Z" fill="white"/>
<path d="M209.28 170.946C210.916 172.713 213.069 173.916 215.431 174.383C217.793 174.851 220.242 174.558 222.428 173.548C224.613 172.538 226.423 170.862 227.597 168.76C228.771 166.658 229.249 164.238 228.964 161.847C228.678 159.456 227.643 157.218 226.006 155.452C224.37 153.686 222.216 152.483 219.854 152.016C217.492 151.55 215.043 151.843 212.858 152.854C210.672 153.865 208.863 155.542 207.69 157.644C206.523 159.747 206.048 162.164 206.333 164.552C206.619 166.94 207.65 169.178 209.28 170.946V170.946Z" fill="#EBEBEB"/>
<path d="M214.644 161.022C214.458 161.683 214.472 162.384 214.684 163.037C214.896 163.689 215.298 164.265 215.837 164.689C216.377 165.113 217.03 165.368 217.715 165.421C218.399 165.474 219.084 165.323 219.682 164.986C220.281 164.649 220.765 164.143 221.076 163.53C221.386 162.918 221.507 162.227 221.425 161.546C221.342 160.864 221.059 160.223 220.611 159.702C220.164 159.182 219.571 158.806 218.91 158.622C218.026 158.378 217.082 158.494 216.283 158.943C215.483 159.393 214.894 160.14 214.644 161.022V161.022Z" fill="white"/>
<path d="M209.664 169.566L209.28 170.946C210.72 172.497 212.563 173.616 214.603 174.179C216.643 174.741 218.799 174.725 220.83 174.132L221.214 172.758C221.544 171.258 221.286 169.688 220.493 168.373C219.7 167.057 218.433 166.096 216.952 165.687C215.472 165.278 213.891 165.452 212.535 166.174C211.179 166.895 210.151 168.109 209.664 169.566V169.566Z" fill="white"/>
<path d="M81.528 82.566C81.049 80.606 81.1619 78.548 81.8526 76.6523C82.5434 74.7566 83.7808 73.1083 85.4084 71.9159C87.036 70.7235 88.9807 70.0407 90.9964 69.9536C93.0122 69.8666 95.0085 70.3794 96.7328 71.4271C98.4571 72.4748 99.8319 74.0103 100.683 75.8394C101.535 77.6686 101.825 79.7092 101.516 81.7031C101.208 83.697 100.315 85.5547 98.951 87.0412C97.5867 88.5277 95.8122 89.5761 93.852 90.054C91.2248 90.6944 88.4509 90.2654 86.1399 88.8612C83.8289 87.4571 82.1701 85.1928 81.528 82.566V82.566Z" fill="#EBEBEB"/>
<path d="M96.636 81.426C95.094 84.528 91.434 86.376 91.434 86.376C91.434 86.376 87.768 84.528 86.232 81.426C84.948 78.834 85.764 76.026 87.786 75.426C90.69 74.55 91.434 79.626 91.434 79.626C91.434 79.626 92.178 74.574 95.082 75.426C97.104 76.032 97.92 78.834 96.636 81.426Z" fill="white"/>
<path d="M243.744 122.346C244.063 120.354 244.965 118.501 246.337 117.021C247.709 115.542 249.489 114.503 251.452 114.035C253.415 113.567 255.472 113.692 257.364 114.394C259.255 115.096 260.896 116.343 262.079 117.977C263.262 119.612 263.934 121.56 264.009 123.577C264.084 125.593 263.56 127.586 262.502 129.304C261.444 131.023 259.901 132.388 258.067 133.229C256.232 134.07 254.19 134.348 252.198 134.028C249.528 133.599 247.138 132.128 245.553 129.937C243.968 127.746 243.317 125.016 243.744 122.346V122.346Z" fill="#EBEBEB"/>
<path d="M258.108 127.152C255.486 129.42 251.394 129.696 251.394 129.696C251.394 129.696 248.73 126.576 248.52 123.096C248.346 120.21 250.176 117.948 252.282 118.17C255.282 118.488 254.022 123.432 254.022 123.432C254.022 123.432 256.668 119.064 259.008 121.002C260.634 122.4 260.298 125.262 258.108 127.152Z" fill="white"/>
<path fill-rule="evenodd" clip-rule="evenodd" d="M126.858 122.1C126.39 121.812 125.988 121.386 125.358 121.446C125.118 121.446 125.172 121.272 125.172 121.146C125.172 118.794 125.172 116.442 125.142 114.096C125.142 113.922 125.142 113.784 125.34 113.688C127.14 112.776 127.902 110.994 128.994 109.488C129.556 108.73 129.959 107.866 130.18 106.949C130.401 106.031 130.434 105.079 130.278 104.148C130.206 103.62 130.452 103.386 130.926 103.272C131.166 103.191 131.425 103.189 131.666 103.264C131.908 103.34 132.119 103.489 132.27 103.692C132.79 104.651 133.139 105.692 133.302 106.77C133.41 107.658 133.092 108.528 132.984 109.41C132.906 110.052 132.756 110.694 132.636 111.348C132.792 111.462 132.978 111.402 133.146 111.402H139.104C139.938 111.402 140.346 111.636 140.466 112.194C140.532 112.535 140.484 112.889 140.328 113.2C140.173 113.511 139.92 113.763 139.608 113.916C139.458 113.994 139.194 113.916 139.176 114.156C139.158 114.396 139.434 114.372 139.572 114.468C140.292 114.954 140.172 115.974 139.332 116.562C139.134 116.706 138.732 116.64 138.732 116.934C138.732 117.228 139.092 117.162 139.26 117.33C139.86 117.9 139.554 118.974 138.69 119.406C138.571 119.443 138.454 119.489 138.342 119.544C138.246 119.61 138.15 119.682 138.342 119.82C139.206 120.42 139.194 121.284 138.342 121.908L138.084 122.1C137.77 122.287 137.404 122.367 137.04 122.328L127.698 122.364C127.547 122.38 127.395 122.365 127.25 122.32C127.106 122.274 126.972 122.2 126.858 122.1V122.1Z" fill="#EBEBEB"/>
<path fill-rule="evenodd" clip-rule="evenodd" d="M117.996 117.99C117.996 116.496 117.996 114.99 117.996 113.508C117.996 113.202 117.996 113.058 118.398 113.058C120.222 113.058 122.042 113.058 123.858 113.058C124.218 113.058 124.272 113.178 124.272 113.496C124.272 116.5 124.272 119.5 124.272 122.496C124.272 122.88 124.176 122.988 123.792 122.982C121.992 122.982 120.258 122.982 118.494 122.982C118.056 122.982 117.99 122.832 117.996 122.448C118.02 120.972 118.002 119.484 117.996 117.99Z" fill="#EBEBEB"/>
<path d="M24.87 220.98L56.154 220.836L87.438 220.782L150 220.686L212.562 220.782L243.846 220.836L275.13 220.98L243.846 221.13L212.562 221.184L150 221.28L87.438 221.184L56.154 221.13L24.87 220.98Z" fill="#263238"/>
<path d="M150 275.634C214.839 275.634 267.402 268.244 267.402 259.128C267.402 250.012 214.839 242.622 150 242.622C85.1607 242.622 32.598 250.012 32.598 259.128C32.598 268.244 85.1607 275.634 150 275.634Z" fill="#EBEBEB"/>
<path d="M160.031 71.8447C162.665 54.461 150.708 38.2335 133.324 35.5996C115.941 32.9657 99.7132 44.9228 97.0793 62.3065C94.4454 79.6903 106.402 95.9178 123.786 98.5517C141.17 101.186 157.397 89.2285 160.031 71.8447Z" fill="#FFC727"/>
<path opacity="0.1" d="M123.162 98.454C118.234 97.6609 113.562 95.7189 109.524 92.7852C105.486 89.8515 102.195 86.0085 99.918 81.5671C97.6407 77.1256 96.4409 72.2104 96.4156 67.2192C96.3903 62.228 97.5402 57.301 99.7724 52.8367C102.005 48.3723 105.256 44.4961 109.264 41.5217C113.272 38.5472 117.925 36.558 122.844 35.7149C127.764 34.8719 132.813 35.1987 137.582 36.669C142.352 38.1392 146.709 40.7116 150.3 44.178C145.347 39.7587 138.967 37.2724 132.33 37.1751C125.693 37.0777 119.243 39.3756 114.162 43.6477C109.081 47.9199 105.711 53.8799 104.668 60.4355C103.625 66.991 104.979 73.7029 108.483 79.3408C111.987 84.9787 117.406 89.1649 123.745 91.1322C130.085 93.0994 136.922 92.7159 143.002 90.0519C149.082 87.3879 153.998 82.6219 156.849 76.6274C159.7 70.633 160.296 63.8118 158.526 57.414C160.174 62.5904 160.468 68.1027 159.381 73.4251C158.293 78.7475 155.86 83.7026 152.314 87.8178C148.768 91.9331 144.227 95.0713 139.124 96.9333C134.02 98.7952 128.525 99.3188 123.162 98.454V98.454Z" fill="black"/>
<path d="M109.8 57.7261C109.81 57.0794 109.949 56.4412 110.209 55.8488C110.468 55.2564 110.843 54.7218 111.312 54.2761C111.798 53.7941 112.386 53.4289 113.034 53.2081C113.698 52.9859 114.406 52.9262 115.098 53.0341C115.787 53.1506 116.439 53.4282 117 53.8441C117.544 54.259 117.989 54.7898 118.302 55.3981C118.605 55.9691 118.792 56.5948 118.85 57.2386C118.909 57.8825 118.839 58.5316 118.644 59.1481C118.575 57.9734 118.185 56.8403 117.516 55.8721C117.215 55.4319 116.829 55.0564 116.381 54.7679C115.933 54.4793 115.431 54.2835 114.906 54.1921C114.379 54.1122 113.842 54.1402 113.326 54.2743C112.81 54.4084 112.327 54.6458 111.906 54.9721C110.964 55.6784 110.235 56.6315 109.8 57.7261V57.7261Z" fill="#263238"/>
<path d="M139.8 62.5621C139.809 61.9159 139.947 61.2779 140.206 60.6856C140.464 60.0932 140.838 59.5583 141.306 59.1121C141.793 58.6315 142.381 58.2665 143.028 58.0441C143.692 57.8179 144.401 57.7576 145.093 57.8685C145.785 57.9794 146.44 58.258 147 58.6801C147.544 59.095 147.989 59.6259 148.302 60.2341C148.607 60.8047 148.794 61.4304 148.853 62.0745C148.911 62.7186 148.84 63.3679 148.644 63.9841C148.574 62.8097 148.184 61.6769 147.516 60.7081C147.222 60.2625 146.838 59.883 146.389 59.5935C145.94 59.3039 145.436 59.1108 144.909 59.0262C144.381 58.9416 143.842 58.9674 143.325 59.102C142.808 59.2366 142.325 59.477 141.906 59.8081C140.962 60.5125 140.232 61.4662 139.8 62.5621V62.5621Z" fill="#263238"/>
<path d="M136.05 60.498C135.955 61.4006 135.678 62.2745 135.235 63.0665C134.792 63.8586 134.192 64.5522 133.473 65.1051C132.753 65.6581 131.928 66.0588 131.049 66.283C130.17 66.5072 129.254 66.55 128.357 66.409C127.461 66.268 126.602 65.9461 125.834 65.4628C125.066 64.9795 124.404 64.345 123.889 63.5978C123.374 62.8507 123.016 62.0065 122.837 61.1167C122.659 60.2269 122.663 59.3101 122.85 58.422L136.05 60.498Z" fill="#263238"/>
<path d="M133.938 64.41C133.197 65.0834 132.315 65.5822 131.356 65.8697C130.398 66.1572 129.386 66.226 128.398 66.0712C127.409 65.9163 126.467 65.5417 125.642 64.9749C124.817 64.4082 124.129 63.6636 123.63 62.796C125.258 61.7905 127.192 61.4004 129.083 61.6964C130.973 61.9924 132.695 62.955 133.938 64.41V64.41Z" fill="#C95F50"/>
<path d="M109.284 57.498C109.284 57.498 104.484 55.854 101.358 57.666C98.2321 59.478 99.1921 63.066 102.372 63.33C105.552 63.594 109.284 57.498 109.284 57.498Z" fill="white"/>
<path d="M149.4 63.9841C149.4 63.9841 154.458 64.3501 156.6 67.2361C158.742 70.1221 156.498 73.0321 153.456 72.0361C150.414 71.0401 149.4 63.9841 149.4 63.9841Z" fill="white"/>
<path d="M73.7994 102.232C75.1065 88.7559 65.2413 76.7713 51.7647 75.4642C38.2881 74.1571 26.3036 84.0223 24.9964 97.4989C23.6893 110.975 33.5546 122.96 47.0311 124.267C60.5077 125.574 72.4923 115.709 73.7994 102.232Z" fill="#FFC727"/>
<path opacity="0.1" d="M56.436 123.342C52.7514 124.441 48.86 124.658 45.0761 123.975C41.2922 123.292 37.722 121.728 34.6539 119.411C31.5858 117.094 29.1058 114.087 27.4142 110.634C25.7226 107.181 24.8669 103.379 24.9162 99.5341C24.9655 95.6894 25.9184 91.9103 27.6979 88.5019C29.4775 85.0935 32.0338 82.1514 35.1603 79.9134C38.2868 77.6754 41.8959 76.2041 45.696 75.6185C49.4962 75.0328 53.3808 75.3492 57.036 76.5421C52.117 75.1406 46.8577 75.5587 42.2218 77.7196C37.586 79.8806 33.884 83.6396 31.7944 88.3081C29.7047 92.9765 29.3672 98.2415 30.8438 103.139C32.3204 108.036 35.5121 112.236 39.8342 114.972C44.1562 117.707 49.3191 118.793 54.3768 118.031C59.4345 117.269 64.0483 114.71 67.3727 110.823C70.6971 106.936 72.5095 101.981 72.4778 96.8662C72.4461 91.7516 70.5724 86.8196 67.2 82.9741C70.0834 86.0118 72.1406 89.7374 73.1757 93.7957C74.2107 97.854 74.1891 102.11 73.1128 106.157C72.0365 110.205 69.9415 113.909 67.0274 116.918C64.1134 119.926 60.4774 122.138 56.466 123.342H56.436Z" fill="black"/>
<path d="M33.8821 100.878C33.6542 100.429 33.5216 99.9375 33.4927 99.4346C33.4638 98.9318 33.5392 98.4284 33.7141 97.9561C33.8888 97.4486 34.176 96.9871 34.5541 96.6061C34.9499 96.2228 35.4311 95.9391 35.9581 95.7781C36.4883 95.6226 37.0482 95.5979 37.5901 95.7061C38.1157 95.8174 38.6098 96.045 39.0361 96.3721C39.4391 96.6739 39.7756 97.0556 40.0244 97.4933C40.2732 97.931 40.429 98.4154 40.4821 98.9161C40.0193 98.1458 39.3583 97.5139 38.5681 97.0861C38.2238 96.8868 37.8426 96.7597 37.4476 96.7124C37.0527 96.665 36.6522 96.6985 36.2706 96.8107C35.889 96.923 35.5342 97.1116 35.2277 97.3653C34.9213 97.6189 34.6697 97.9322 34.4881 98.2861C34.0612 99.0816 33.8522 99.9758 33.8821 100.878V100.878Z" fill="#263238"/>
<path d="M62.52 90.8641C62.7138 91.5169 62.7101 92.2124 62.5094 92.8632C62.3086 93.5139 61.9198 94.0906 61.3918 94.5208C60.8639 94.9509 60.2205 95.2151 59.5426 95.2803C58.8647 95.3454 58.1828 95.2084 57.5826 94.8867C56.9824 94.5649 56.4909 94.0727 56.1699 93.4721C55.849 92.8715 55.7129 92.1894 55.7789 91.5116C55.845 90.8338 56.1101 90.1908 56.5409 89.6634C56.9717 89.136 57.549 88.748 58.2 88.5481C58.6357 88.4151 59.0934 88.3696 59.5467 88.4142C60.0001 88.4587 60.4401 88.5925 60.8416 88.8077C61.2431 89.0229 61.5981 89.3154 61.8861 89.6683C62.1741 90.0212 62.3896 90.4276 62.52 90.8641V90.8641Z" fill="#263238"/>
<path d="M42.954 97.65C42.954 97.65 44.514 99.756 48.252 99.414C48.252 99.414 47.724 106.452 43.296 104.814C38.868 103.176 42.954 97.65 42.954 97.65Z" fill="#C95F50"/>
<path d="M41.592 95.5741C42.3464 96.868 43.4649 97.9113 44.808 98.5741C46.1227 99.1203 47.5899 99.1757 48.942 98.7301C50.3238 98.3918 51.5327 97.5567 52.338 96.3841C53.1185 95.1189 53.5511 93.6701 53.592 92.1841C53.9856 93.7462 53.8002 95.3981 53.07 96.8341C52.6783 97.5721 52.1294 98.2153 51.462 98.7181C50.791 99.2038 50.0394 99.5674 49.242 99.7921C48.4467 100.017 47.6194 100.109 46.794 100.062C45.9605 100 45.1511 99.7544 44.424 99.3421C43.025 98.5032 42.0089 97.1512 41.592 95.5741Z" fill="#263238"/>
<path d="M44.1541 102.936C44.1921 102.265 44.3316 101.603 44.5681 100.974C44.7783 100.33 45.0881 99.7225 45.4861 99.1741C45.453 99.8453 45.3153 100.507 45.0781 101.136C44.8631 101.779 44.5515 102.386 44.1541 102.936Z" fill="#263238"/>
<path d="M226.644 78.642H171.192V109.23H226.644V78.642Z" fill="#455A64"/>
<path d="M160.5 109.236H171.192V99.702L160.5 109.236Z" fill="#455A64"/>
<path d="M203.076 84.294H177.936V84.984H203.076V84.294Z" fill="white"/>
<path d="M220.164 88.014H177.936V88.704H220.164V88.014Z" fill="white"/>
<path d="M220.164 91.734H177.936V92.424H220.164V91.734Z" fill="white"/>
<path d="M212.07 95.454H177.936V96.144H212.07V95.454Z" fill="white"/>
<path d="M220.164 99.174H177.936V99.864H220.164V99.174Z" fill="white"/>
<path d="M193.47 102.894H177.936V103.584H193.47V102.894Z" fill="white"/>
<path d="M249.87 114.594H194.79V137.28H249.87V114.594Z" fill="#FFC727"/>
<path d="M194.808 128.184V137.28H183.75L194.808 128.184Z" fill="#FFC727"/>
<path d="M243.252 120.24H201.492V120.93H243.252V120.24Z" fill="white"/>
<path d="M225.318 123.96H201.492V124.65H225.318V123.96Z" fill="white"/>
<path d="M233.7 127.68H201.492V128.37H233.7V127.68Z" fill="white"/>
<path d="M212.712 131.4H201.492V132.09H212.712V131.4Z" fill="white"/>
<path d="M160.236 128.934L159.9 128.64C160.158 128.34 160.434 128.04 160.71 127.746L161.04 128.052C160.764 128.346 160.494 128.64 160.236 128.934Z" fill="#263238"/>
<path d="M173.544 165.948V165.498C174.312 165.498 175.098 165.432 175.884 165.342L175.938 165.792C175.128 165.876 174.324 165.93 173.544 165.948ZM170.544 165.81C169.749 165.721 168.96 165.589 168.18 165.414L168.282 164.976C169.044 165.147 169.815 165.275 170.592 165.36L170.544 165.81ZM178.854 165.294L178.758 164.856C179.508 164.688 180.27 164.484 181.032 164.256L181.164 164.688C180.414 164.916 179.634 165.126 178.872 165.294H178.854ZM165.318 164.556C164.571 164.272 163.842 163.944 163.134 163.572L163.344 163.17C164.035 163.532 164.746 163.855 165.474 164.136L165.318 164.556ZM183.972 163.674L183.798 163.254C184.518 162.96 185.238 162.654 185.946 162.294L186.144 162.696C185.448 163.05 184.716 163.374 183.99 163.674H183.972ZM160.572 161.976C159.93 161.502 159.318 160.987 158.742 160.434L159.054 160.11C159.622 160.649 160.223 161.152 160.854 161.616L160.572 161.976ZM188.742 161.286L188.508 160.902C189.174 160.5 189.834 160.068 190.476 159.612L190.734 159.984C190.128 160.44 189.456 160.878 188.784 161.286H188.742ZM156.744 158.208C156.257 157.575 155.81 156.911 155.406 156.222L155.796 155.994C156.189 156.667 156.624 157.314 157.098 157.932L156.744 158.208ZM193.086 158.154L192.792 157.812C193.392 157.314 193.962 156.78 194.532 156.234L194.844 156.558C194.31 157.11 193.722 157.65 193.128 158.154H193.086ZM196.908 154.41L196.572 154.11C197.088 153.546 197.604 152.91 198.108 152.31L198.456 152.592C198 153.234 197.466 153.84 196.95 154.41H196.908ZM154.098 153.528C153.803 152.783 153.553 152.022 153.348 151.248L153.786 151.134C153.984 151.889 154.227 152.633 154.512 153.36L154.098 153.528ZM200.298 150.258L199.932 149.988C200.4 149.388 200.856 148.716 201.306 148.068L201.678 148.32C201.246 148.98 200.79 149.622 200.322 150.258H200.298ZM152.826 148.308C152.74 147.537 152.696 146.762 152.694 145.986V145.92H153.144V145.992C153.144 146.75 153.186 147.507 153.27 148.26L152.826 148.308ZM203.328 145.854L202.95 145.608C203.376 144.948 203.802 144.288 204.222 143.61L204.6 143.85C204.204 144.528 203.778 145.2 203.352 145.854H203.328ZM153.354 142.998L152.91 142.932C153.021 142.143 153.173 141.359 153.366 140.586L153.804 140.694C153.621 141.454 153.479 142.223 153.378 142.998H153.354ZM206.154 141.324L205.77 141.09C206.178 140.418 206.586 139.746 206.97 139.062L207.354 139.296L206.154 141.324ZM154.674 137.892L154.254 137.736C154.53 136.998 154.854 136.26 155.202 135.54L155.604 135.738C155.292 136.446 154.974 137.172 154.704 137.892H154.674ZM208.908 136.758L208.524 136.524L209.754 134.496L210.138 134.73L208.908 136.758ZM157.032 133.158L156.648 132.918C157.068 132.252 157.518 131.586 157.992 130.944L158.352 131.214C157.92 131.856 157.47 132.51 157.062 133.2L157.032 133.158ZM211.704 132.204L211.32 131.964C211.74 131.298 212.172 130.632 212.604 129.972L212.982 130.218C212.58 130.89 212.148 131.556 211.734 132.216L211.704 132.204ZM214.632 127.764L214.26 127.506C214.71 126.858 215.172 126.216 215.64 125.574L216 125.838C215.56 126.482 215.114 127.136 214.662 127.8L214.632 127.764ZM217.788 123.486L217.434 123.204C217.932 122.574 218.436 121.956 218.934 121.362L219.282 121.656C218.814 122.256 218.31 122.868 217.8 123.498L217.788 123.486ZM221.232 119.442L220.902 119.136C221.442 118.536 222 117.978 222.552 117.426L222.87 117.744C222.348 118.308 221.802 118.878 221.262 119.454L221.232 119.442ZM225.012 115.722L224.712 115.386C225.312 114.858 225.912 114.336 226.512 113.838L226.794 114.186C226.23 114.69 225.6 115.2 225.042 115.734L225.012 115.722ZM229.134 112.386L228.87 112.026C229.506 111.558 230.166 111.102 230.826 110.67L231.072 111.048C230.448 111.486 229.8 111.942 229.164 112.398L229.134 112.386ZM233.574 109.5L233.352 109.11C234.03 108.72 234.732 108.33 235.434 107.97L235.644 108.366C234.972 108.738 234.276 109.122 233.604 109.512L233.574 109.5ZM238.29 107.1L238.104 106.692C238.824 106.368 239.562 106.056 240.294 105.762L240.462 106.182C239.76 106.464 239.034 106.8 238.32 107.094L238.29 107.1ZM243.222 105.162L243.078 104.736C243.822 104.478 244.584 104.238 245.346 104.01L245.472 104.442C244.746 104.658 243.99 104.904 243.252 105.156L243.222 105.162Z" fill="#263238"/>
<path d="M248.454 103.626L248.346 103.188L249.516 102.912L249.618 103.35L248.454 103.626Z" fill="#263238"/>
<path d="M248.874 98.628L244.296 104.64L250.74 102.204L272.796 101.19L248.874 98.628Z" fill="#FFC727"/>
<path opacity="0.1" d="M248.874 98.628L244.296 104.64L250.74 102.204L272.796 101.19L248.874 98.628Z" fill="black"/>
<path d="M250.914 103.992L244.296 104.64L250.74 102.204L250.914 103.992Z" fill="#263238"/>
<path d="M250.74 102.204L272.796 101.19L251.598 111.99L250.74 102.204Z" fill="#FFC727"/>
<path d="M248.874 98.628L242.292 90.744L272.796 101.19L248.874 98.628Z" fill="#FFC727"/>
<path d="M72.75 258.648L183.75 259.128C210.75 237.942 213.516 206.556 194.268 187.536C182.622 176.028 167.832 178.35 153.744 176.52H153.708C148.8 175.878 143.988 174.72 139.422 172.32C124.92 164.67 116.742 146.622 104.544 131.442C103.02 129.534 101.42 127.688 99.744 125.904C89.712 115.188 69.744 114.84 59.298 129.9C32.766 168.168 44.922 225.132 72.75 258.648Z" fill="#FFC727"/>
<path opacity="0.2" d="M72.75 258.648L183.75 259.128C210.75 237.942 213.516 206.556 194.268 187.536C182.622 176.028 167.832 178.35 153.744 176.52H153.708C148.8 175.878 143.988 174.72 139.422 172.32C124.92 164.67 116.742 146.622 104.544 131.442C103.02 129.534 101.42 127.688 99.744 125.904C89.712 115.188 69.744 114.84 59.298 129.9C32.766 168.168 44.922 225.132 72.75 258.648Z" fill="black"/>
<path opacity="0.1" d="M70.284 171.09C73.2 216.6 125.778 233.622 158.628 219.984C187.182 208.122 177.828 181.05 153.732 176.52H153.696C148.788 175.878 143.976 174.72 139.41 172.32C124.908 164.67 116.73 146.622 104.532 131.442C86.352 121.998 68.154 137.748 70.284 171.09Z" fill="black"/>
<path d="M168.21 262.254C166.608 261.654 130.446 232.764 129.762 230.79C129.498 230.046 133.404 224.532 138.306 218.004C139.362 216.594 140.466 215.148 141.594 213.684C148.902 204.162 156.876 194.226 156.876 194.226L181.128 213.492L165.174 232.416L161.676 236.574C161.676 236.574 170.574 253.83 171.09 256.074C171.606 258.318 169.8 262.842 168.21 262.254Z" fill="#C95F50"/>
<path d="M168.21 262.254C166.608 261.654 130.446 232.764 129.762 230.79C129.444 229.878 135.27 221.934 141.594 213.684L165.174 232.416L161.676 236.574C161.676 236.574 170.574 253.83 171.09 256.074C171.606 258.318 169.8 262.842 168.21 262.254Z" fill="white"/>
<path d="M168.21 262.254C166.608 261.654 130.446 232.764 129.762 230.79C129.498 230.046 133.404 224.532 138.306 218.004L161.676 236.604C161.676 236.604 170.574 253.86 171.09 256.104C171.606 258.348 169.8 262.842 168.21 262.254Z" fill="#FFC727"/>
<path d="M168.846 260.4C162.906 255.408 138.462 235.8 132.21 231.342C132.156 231.306 132.132 231.342 132.21 231.378C137.988 236.454 162.588 255.84 168.81 260.496C168.9 260.592 168.972 260.496 168.846 260.4Z" fill="#263238"/>
<path d="M169.8 252.918C169.142 252.361 168.376 251.948 167.549 251.703C166.723 251.458 165.855 251.388 165 251.496C163.458 251.68 162.046 252.452 161.058 253.65C161.028 253.686 161.094 253.74 161.13 253.71C162.295 252.673 163.764 252.043 165.318 251.913C166.872 251.783 168.426 252.161 169.746 252.99C169.8 253.026 169.848 252.954 169.8 252.918Z" fill="#263238"/>
<path d="M163.542 239.052C161.142 237.078 157.65 235.692 154.542 236.466C154.422 236.496 154.464 236.67 154.542 236.688C157.554 237.272 160.495 238.177 163.314 239.388C163.336 239.403 163.361 239.413 163.387 239.419C163.413 239.424 163.44 239.424 163.466 239.419C163.492 239.414 163.517 239.404 163.54 239.39C163.562 239.375 163.581 239.356 163.596 239.334C163.611 239.312 163.621 239.287 163.627 239.261C163.632 239.235 163.632 239.208 163.627 239.182C163.622 239.156 163.612 239.131 163.598 239.108C163.583 239.086 163.564 239.067 163.542 239.052V239.052Z" fill="#263238"/>
<path d="M164.832 241.278C162.432 239.31 158.934 237.918 155.832 238.698C155.712 238.728 155.754 238.896 155.832 238.914C158.842 239.498 161.781 240.403 164.598 241.614C164.62 241.629 164.645 241.64 164.671 241.646C164.697 241.652 164.725 241.652 164.751 241.648C164.778 241.643 164.803 241.633 164.825 241.618C164.848 241.604 164.868 241.585 164.883 241.563C164.898 241.541 164.909 241.516 164.915 241.49C164.921 241.464 164.921 241.436 164.917 241.41C164.912 241.383 164.902 241.358 164.887 241.336C164.873 241.313 164.854 241.293 164.832 241.278Z" fill="#263238"/>
<path d="M166.122 243.51C163.722 241.536 160.224 240.144 157.122 240.924C157.002 240.924 157.044 241.122 157.122 241.146C160.132 241.727 163.071 242.631 165.888 243.84C165.932 243.871 165.986 243.883 166.039 243.874C166.092 243.865 166.139 243.836 166.17 243.792C166.201 243.748 166.213 243.694 166.204 243.641C166.195 243.588 166.166 243.541 166.122 243.51V243.51Z" fill="#263238"/>
<path d="M167.4 245.736C165 243.762 161.502 242.37 158.4 243.15C158.28 243.18 158.322 243.348 158.4 243.372C161.41 243.954 164.349 244.857 167.166 246.066C167.188 246.081 167.212 246.092 167.238 246.098C167.264 246.104 167.291 246.105 167.317 246.1C167.343 246.096 167.368 246.086 167.391 246.072C167.413 246.058 167.433 246.04 167.448 246.018C167.463 245.996 167.474 245.972 167.48 245.946C167.486 245.92 167.487 245.893 167.482 245.867C167.478 245.841 167.468 245.816 167.454 245.793C167.44 245.771 167.422 245.751 167.4 245.736Z" fill="#263238"/>
<path d="M138.354 226.8C135.624 224.634 132.252 228.87 134.982 231.042C137.712 233.214 141.084 228.984 138.354 226.8Z" fill="white"/>
<path d="M171.342 234.672C170.928 232.674 168.582 232.434 166.98 232.872C164.243 233.7 161.772 235.233 159.816 237.318C159.806 237.325 159.798 237.335 159.792 237.346C159.787 237.357 159.784 237.369 159.784 237.381C159.784 237.393 159.787 237.405 159.792 237.416C159.798 237.427 159.806 237.437 159.816 237.444C159.789 237.497 159.774 237.556 159.774 237.616C159.774 237.675 159.788 237.734 159.815 237.787C159.842 237.841 159.881 237.887 159.929 237.922C159.977 237.957 160.033 237.98 160.092 237.99C162.774 238.176 165.624 238.71 168.282 238.062C169.86 237.702 171.732 236.568 171.342 234.672ZM164.244 237.45C162.918 237.396 161.61 237.27 160.29 237.258C161.659 236.353 163.072 235.518 164.526 234.756C165.237 234.398 165.97 234.087 166.722 233.826C167.892 233.448 171.894 233.322 170.022 236.154C168.996 237.72 165.816 237.522 164.244 237.45Z" fill="#263238"/>
<path d="M153.072 233.4C154.926 235.41 157.584 236.55 159.918 237.888C159.972 237.913 160.032 237.925 160.091 237.923C160.151 237.92 160.209 237.904 160.262 237.874C160.314 237.845 160.358 237.804 160.391 237.754C160.424 237.704 160.445 237.647 160.452 237.588C160.506 237.588 160.554 237.558 160.542 237.492C160.072 234.673 158.87 232.026 157.056 229.818C155.976 228.552 153.894 227.448 152.436 228.882C150.978 230.316 151.986 232.236 153.072 233.4ZM152.712 230.844C152.712 227.454 155.988 229.782 156.75 230.748C157.23 231.382 157.667 232.048 158.058 232.74C158.842 234.181 159.553 235.661 160.188 237.174C159.084 236.448 157.926 235.824 156.792 235.14C155.448 234.33 152.7 232.728 152.712 230.856V230.844Z" fill="#263238"/>
<path d="M205.614 176.448C203.952 189.048 172.908 225.408 169.32 229.584L168.504 230.532L142.8 210.798L143.094 210.414L165.708 180.804L98.256 180.408L123.87 160.494C123.87 160.494 125.946 161.694 130.266 161.064C145.152 158.886 178.716 154.062 186.63 154.38C196.86 154.8 207.138 164.892 205.614 176.448Z" fill="#37474F"/>
<path d="M173.856 169.8C173.016 170.75 172.237 171.752 171.522 172.8C170.724 173.85 169.914 174.888 169.122 175.938V175.968C169.26 175.662 169.398 175.368 169.548 175.044C170.052 174.006 170.454 172.926 171.048 171.93C171.084 171.864 170.994 171.81 170.958 171.87C170.358 172.86 169.632 173.802 169.11 174.87C168.864 175.362 168.63 175.854 168.414 176.358C168.294 176.634 168.168 176.916 168.066 177.192C168.007 177.325 167.957 177.461 167.916 177.6C167.556 178.086 167.208 178.572 166.86 179.07C166.098 180.174 165.426 181.338 164.658 182.436C164.616 182.49 164.712 182.544 164.754 182.49C165.534 181.464 166.41 180.504 167.202 179.49C167.994 178.476 168.774 177.378 169.53 176.304C170.286 175.23 170.988 174.192 171.726 173.142C172.534 172.105 173.277 171.019 173.952 169.89C173.94 169.8 173.892 169.764 173.856 169.8Z" fill="#263238"/>
<path d="M110.058 142.272C115.644 156.594 133.458 173.292 139.518 173.832C146.574 174.468 164.802 166.374 171.858 156.564C173.526 154.242 158.586 143.172 156.06 144.906C150.876 148.458 141.108 153.306 140.268 153.342C138.6 153.468 127.512 144.786 118.668 138.582C107.652 130.872 107.832 136.566 110.058 142.272Z" fill="#C95F50"/>
<path d="M169.704 159.162C169.704 159.162 176.166 152.49 176.85 146.208C177.324 141.858 176.88 130.326 166.422 122.514C163.938 120.66 159.09 119.784 162.042 124.278C164.142 127.476 166.434 128.868 167.316 130.944C167.316 130.944 161.016 130.56 159.258 133.116C157.721 135.351 156.346 137.693 155.142 140.124C155.535 140.45 155.95 140.749 156.384 141.018C156.384 141.018 154.962 143.562 155.946 147.876L169.704 159.162Z" fill="#C95F50"/>
<path d="M154.266 118.038L147.066 140.838C146.784 141.504 147.066 142.074 147.756 142.11L159.714 142.8C160.079 142.795 160.436 142.686 160.741 142.485C161.046 142.284 161.287 142 161.436 141.666L168.606 118.866C168.894 118.2 168.606 117.63 167.922 117.588L156 116.91C155.634 116.914 155.276 117.023 154.969 117.222C154.662 117.422 154.418 117.705 154.266 118.038V118.038Z" fill="#A6A6A6"/>
<path d="M155.682 118.11L148.482 140.91C148.2 141.57 148.482 142.146 149.172 142.182L161.1 142.878C161.466 142.871 161.822 142.761 162.128 142.561C162.434 142.36 162.676 142.077 162.828 141.744L169.992 118.944C170.28 118.278 169.992 117.714 169.308 117.672L157.41 117C157.047 117.005 156.692 117.111 156.387 117.307C156.081 117.504 155.837 117.782 155.682 118.11Z" fill="#C7C7C7"/>
<path d="M158.892 119.358C158.876 119.558 158.801 119.748 158.677 119.906C158.552 120.063 158.384 120.18 158.193 120.242C158.002 120.303 157.797 120.307 157.605 120.252C157.412 120.198 157.239 120.087 157.109 119.934C156.979 119.782 156.897 119.594 156.874 119.395C156.851 119.195 156.887 118.994 156.978 118.815C157.07 118.637 157.212 118.489 157.387 118.391C157.562 118.294 157.762 118.25 157.962 118.266C158.095 118.277 158.224 118.313 158.343 118.374C158.461 118.434 158.567 118.518 158.653 118.619C158.74 118.721 158.805 118.838 158.846 118.965C158.887 119.092 158.903 119.225 158.892 119.358V119.358Z" fill="#263238"/>
<path d="M176.22 140.022C174.906 138.144 172.062 134.208 168.612 131.796C164.784 129.12 156.678 124.992 154.734 127.842C153.306 129.93 156.258 131.778 156.258 131.778C156.258 131.778 152.55 130.776 151.674 132.978C150.876 134.952 153.246 136.242 153.246 136.242C153.246 136.242 150.894 136.026 150.486 138.078C150.006 140.544 155.016 140.598 156.684 143.526C157.056 144.15 176.22 140.022 176.22 140.022Z" fill="#C95F50"/>
<path d="M166.458 136.314C163.632 133.795 160.105 132.198 156.348 131.736C156.252 131.736 156.192 131.796 156.282 131.82C159.836 132.915 163.245 134.436 166.434 136.35C166.434 136.35 166.476 136.332 166.458 136.314Z" fill="#263238"/>
<path d="M163.644 140.106C162.192 138.906 157.56 136.338 153.276 136.134C153.18 136.134 153.126 136.2 153.216 136.224C156.821 137.134 160.311 138.448 163.62 140.142C163.62 140.142 163.662 140.118 163.644 140.106Z" fill="#263238"/>
<path d="M155.874 142.482C155.874 143.868 155.874 145.212 156.03 146.55C156.09 147.222 156.198 147.882 156.318 148.542C156.465 149.205 156.647 149.86 156.864 150.504C156.023 149.37 155.528 148.018 155.436 146.61C155.373 145.913 155.373 145.213 155.436 144.516C155.497 143.822 155.644 143.139 155.874 142.482V142.482Z" fill="#263238"/>
<path d="M117.63 157.092L128.646 144.786C128.646 144.786 119.886 137.28 113.544 134.442C107.202 131.604 106.302 135.696 109.092 141.87C111.882 148.044 117.63 157.092 117.63 157.092Z" fill="#C7C7C7"/>
<path d="M125.718 148.05L117.63 157.092C117.63 157.092 111.882 148.044 109.092 141.87C106.998 137.226 106.974 133.758 109.8 133.536L125.718 148.05Z" fill="#A6A6A6"/>
<path d="M125.496 142.92C123.63 144.672 118.716 149.586 115.962 153.21C115.962 153.21 116.028 153.312 116.046 153.288C118.812 150.642 123.918 144.948 125.61 143.034C125.646 142.998 125.532 142.89 125.496 142.92Z" fill="#263238"/>
<path d="M84.042 187.8C84.156 187.92 128.052 178.302 128.442 177.792C129.042 177.072 121.164 144.06 112.89 134.214C110.82 131.748 104.232 131.916 101.28 134.406C86.682 146.712 83.622 187.362 84.042 187.8Z" fill="#EBEBEB"/>
<path fill-rule="evenodd" clip-rule="evenodd" d="M110.712 132.864L100.422 135.192C100.692 134.922 100.968 134.676 101.244 134.442L109.494 132.582C109.906 132.646 110.314 132.74 110.712 132.864ZM112.23 133.59L99.102 136.554C98.892 136.782 98.694 137.01 98.502 137.25L112.752 134.034C112.593 133.869 112.418 133.72 112.23 133.59V133.59ZM113.484 134.934L97.494 138.534C97.326 138.75 97.17 138.972 97.014 139.2L113.814 135.402C113.724 135.252 113.61 135.09 113.484 134.934V134.934ZM114.474 136.338L96.18 140.466C96.042 140.682 95.904 140.898 95.772 141.12L114.786 136.8L114.474 136.338ZM115.35 137.766L95.052 142.35L94.704 142.992L115.638 138.264L115.35 137.766ZM116.16 139.2L94.068 144.186L93.756 144.786L116.4 139.71L116.16 139.2ZM116.904 140.652L93.192 146.01C93.096 146.214 93.006 146.424 92.91 146.61L117.15 141.132C117.072 141 117 140.832 116.904 140.664V140.652ZM117.606 142.116L92.406 147.81L92.154 148.41L117.852 142.608C117.768 142.464 117.69 142.296 117.6 142.128L117.606 142.116ZM118.278 143.592L91.674 149.592C91.59 149.796 91.512 150 91.434 150.192L118.506 144.078C118.428 143.94 118.356 143.772 118.278 143.604V143.592ZM118.92 145.074L91.008 151.38C90.932 151.584 90.86 151.784 90.792 151.98L119.136 145.578L118.92 145.074ZM119.52 146.562L90.378 153.162C90.306 153.366 90.24 153.564 90.174 153.762L119.724 147.09C119.67 146.916 119.598 146.742 119.532 146.574L119.52 146.562ZM120.12 148.056L89.814 154.902C89.754 155.106 89.688 155.304 89.628 155.502L120.318 148.566L120.12 148.056ZM120.72 149.556L89.286 156.66L89.106 157.26L120.906 150.06L120.72 149.556ZM121.266 151.056L88.8 158.4C88.74 158.598 88.686 158.802 88.632 159L121.434 151.584C121.362 151.41 121.302 151.236 121.236 151.068L121.266 151.056ZM121.8 152.562L88.32 160.128C88.272 160.326 88.218 160.524 88.17 160.728L121.95 153.096L121.8 152.562ZM122.316 154.068L87.918 161.838C87.862 162.038 87.814 162.238 87.774 162.438L122.49 154.596C122.4 154.428 122.346 154.254 122.286 154.08L122.316 154.068ZM122.826 155.586L87.504 163.56C87.456 163.758 87.414 163.956 87.366 164.16L122.994 156.114C122.91 155.946 122.85 155.772 122.796 155.598L122.826 155.586ZM123.312 157.098L87.12 165.276L86.994 165.876L123.48 157.638C123.396 157.464 123.342 157.284 123.282 157.11L123.312 157.098ZM123.792 158.616L86.76 166.98C86.718 167.178 86.676 167.376 86.64 167.58L123.954 159.18L123.792 158.616ZM124.26 160.14L86.4 168.696C86.364 168.894 86.322 169.092 86.292 169.296L124.392 160.686C124.332 160.5 124.278 160.326 124.23 160.152L124.26 160.14ZM124.71 161.658L86.07 170.4C86.034 170.592 85.998 170.79 85.968 171L124.83 162.222C124.8 162 124.728 161.85 124.68 161.67L124.71 161.658ZM125.148 163.188L85.8 172.086C85.764 172.284 85.728 172.476 85.698 172.686L125.298 163.746C125.22 163.554 125.172 163.38 125.118 163.2L125.148 163.188ZM125.58 164.718L85.524 173.76L85.434 174.36L125.73 165.264C125.646 165.084 125.598 164.91 125.55 164.73L125.58 164.718ZM125.994 166.248L85.266 175.446L85.176 176.046L126.108 166.8C126.066 166.614 126 166.44 125.964 166.26L125.994 166.248ZM126.408 167.784L85.008 177.132C85.008 177.33 84.954 177.516 84.93 177.732L126.534 168.336C126.468 168.15 126.426 168 126.378 167.796L126.408 167.784ZM126.798 169.32L84.798 178.806L84.726 179.406L126.936 169.872C126.864 169.692 126.816 169.512 126.768 169.332L126.798 169.32ZM127.182 170.856L84.582 180.456C84.582 180.654 84.54 180.846 84.516 181.056L127.296 171.39L127.182 170.856ZM127.548 172.398L84.408 182.142C84.408 182.342 84.39 182.542 84.354 182.742L127.668 172.956C127.602 172.8 127.56 172.59 127.518 172.41L127.548 172.398ZM127.896 173.946L84.252 183.804C84.252 184.002 84.216 184.194 84.204 184.404L128.004 174.51C127.944 174.324 127.908 174.144 127.866 173.958L127.896 173.946ZM128.214 175.506L84.12 185.466C84.12 185.664 84.12 185.856 84.084 186.03L128.316 176.04C128.256 175.884 128.22 175.71 128.184 175.518L128.214 175.506ZM128.478 177.072L84 187.122C83.9906 187.308 83.9906 187.494 84 187.68L128.478 177.636C128.478 177.452 128.468 177.267 128.448 177.084L128.478 177.072Z" fill="#DBDBDB"/>
<path d="M110.94 141.828C108.942 142.056 104.52 138.606 102.672 135.564C102.552 135.354 102.774 133.086 102.924 130.314C103.002 128.634 103.056 126.762 102.978 125.052L113.838 127.182C113.32 129.343 113.07 131.56 113.094 133.782C113.105 134.017 113.139 134.25 113.196 134.478C113.196 134.514 113.196 134.55 113.196 134.592C113.496 135.942 114.066 141.468 110.94 141.828Z" fill="#C95F50"/>
<path d="M113.196 134.502C113.196 134.538 113.196 134.568 113.196 134.622C112.831 134.686 112.462 134.72 112.092 134.724C105.978 134.862 104.154 127.488 103.74 125.208L113.838 127.2C113.323 129.362 113.071 131.578 113.088 133.8C113.107 134.036 113.143 134.271 113.196 134.502Z" fill="#263238"/>
<path d="M99.678 111.858C99.036 115.794 102.498 126.438 105.51 128.508C109.878 131.508 116.31 130.992 118.668 125.91C120.966 120.978 116.208 107.184 112.908 105.378C108.048 102.714 100.632 106.05 99.678 111.858Z" fill="#C95F50"/>
<path d="M108.246 115.104C108.54 114.93 108.78 114.72 109.056 114.504C109.332 114.288 109.656 114.126 109.77 113.754C109.804 113.64 109.798 113.518 109.752 113.409C109.706 113.299 109.623 113.209 109.518 113.154C109.305 113.075 109.075 113.054 108.851 113.094C108.627 113.135 108.418 113.234 108.246 113.382C107.851 113.631 107.562 114.018 107.436 114.468C107.403 114.575 107.404 114.688 107.437 114.795C107.47 114.901 107.535 114.995 107.623 115.064C107.711 115.133 107.817 115.173 107.928 115.18C108.039 115.188 108.15 115.161 108.246 115.104Z" fill="#263238"/>
<path d="M115.374 113.016C115.042 113.034 114.71 113.034 114.378 113.016C114.027 113.076 113.667 113.019 113.352 112.854C113.266 112.783 113.206 112.687 113.179 112.579C113.152 112.471 113.16 112.357 113.202 112.254C113.325 112.061 113.497 111.903 113.7 111.798C113.903 111.692 114.131 111.643 114.36 111.654C114.822 111.613 115.284 111.743 115.656 112.02C115.747 112.086 115.815 112.179 115.852 112.286C115.889 112.392 115.892 112.508 115.861 112.616C115.831 112.725 115.768 112.821 115.68 112.892C115.593 112.964 115.486 113.007 115.374 113.016Z" fill="#263238"/>
<path d="M111.204 123.366C111.426 123.486 111.666 123.672 111.936 123.618C112.204 123.534 112.451 123.395 112.662 123.21C112.662 123.21 112.716 123.21 112.704 123.21C112.643 123.383 112.536 123.536 112.394 123.652C112.253 123.769 112.082 123.844 111.9 123.87C111.741 123.874 111.585 123.832 111.45 123.747C111.316 123.663 111.209 123.541 111.144 123.396C111.12 123.384 111.174 123.354 111.204 123.366Z" fill="#263238"/>
<path d="M111.336 120.978C111.604 121.208 111.916 121.381 112.254 121.484C112.592 121.587 112.947 121.619 113.298 121.578C113.607 121.551 113.91 121.478 114.198 121.362C114.254 121.345 114.308 121.323 114.36 121.296L114.516 121.224C114.551 121.204 114.58 121.174 114.597 121.138C114.614 121.101 114.62 121.06 114.612 121.02L114.582 120.948V120.888C114.438 120.324 114.138 119.49 114.138 119.49C114.372 119.532 115.542 119.7 115.446 119.412C114.65 116.913 113.602 114.5 112.32 112.212C112.312 112.194 112.297 112.181 112.279 112.174C112.261 112.167 112.241 112.168 112.224 112.176C112.206 112.184 112.193 112.199 112.186 112.217C112.179 112.235 112.18 112.254 112.188 112.272C112.914 114.576 114.036 116.742 114.798 119.052C114.378 118.992 113.952 118.992 113.532 119.052C113.46 119.094 114.132 120.648 114.186 120.906C114.188 120.916 114.188 120.926 114.186 120.936C113.742 121.112 113.267 121.198 112.789 121.189C112.311 121.18 111.839 121.075 111.402 120.882C111.318 120.87 111.276 120.936 111.336 120.978Z" fill="#263238"/>
<path d="M113.79 121.2C113.596 121.686 113.283 122.116 112.878 122.448C112.654 122.621 112.381 122.72 112.098 122.73C111.498 122.73 111.306 122.22 111.276 121.734C111.267 121.477 111.288 121.219 111.336 120.966C112.108 121.305 112.968 121.387 113.79 121.2V121.2Z" fill="#263238"/>
<path d="M112.878 122.442C112.654 122.615 112.381 122.714 112.098 122.724C111.498 122.724 111.306 122.214 111.276 121.728C111.584 121.65 111.91 121.678 112.201 121.807C112.491 121.937 112.73 122.16 112.878 122.442V122.442Z" fill="#FF9BBC"/>
<path d="M108.858 116.88C108.845 116.672 108.889 116.465 108.984 116.28C109.038 116.182 109.113 116.096 109.203 116.029C109.293 115.962 109.396 115.914 109.506 115.89C109.618 115.867 109.733 115.87 109.844 115.899C109.954 115.928 110.056 115.983 110.142 116.058C110.289 116.194 110.401 116.363 110.472 116.55C110.517 116.66 110.551 116.775 110.574 116.892C110.631 117.135 110.631 117.387 110.574 117.63C110.545 117.453 110.497 117.28 110.43 117.114C110.374 116.963 110.306 116.816 110.226 116.676C110.058 116.388 109.818 116.172 109.578 116.244C109.338 116.316 109.176 116.544 109.14 116.874C109.107 117.217 109.107 117.563 109.14 117.906C108.969 117.59 108.872 117.239 108.858 116.88V116.88Z" fill="#263238"/>
<path d="M115.884 114.642C115.785 114.465 115.642 114.317 115.47 114.21C115.37 114.157 115.261 114.125 115.149 114.115C115.036 114.106 114.923 114.12 114.816 114.156C114.71 114.197 114.614 114.263 114.537 114.347C114.46 114.431 114.404 114.532 114.372 114.642C114.321 114.839 114.321 115.045 114.372 115.242C114.398 115.36 114.43 115.476 114.468 115.59C114.554 115.817 114.689 116.022 114.864 116.19C114.793 116.026 114.741 115.855 114.708 115.68C114.68 115.521 114.66 115.361 114.648 115.2C114.648 114.87 114.726 114.558 114.966 114.486C115.101 114.452 115.244 114.464 115.372 114.519C115.5 114.575 115.606 114.67 115.674 114.792C115.878 115.07 116.055 115.368 116.202 115.68C116.179 115.314 116.07 114.958 115.884 114.642V114.642Z" fill="#263238"/>
<path d="M115.722 108.504C112.458 112.02 106.272 109.218 106.272 109.218C106.128 110.131 105.695 110.974 105.036 111.622C104.377 112.27 103.527 112.689 102.612 112.818C102.612 112.818 103.326 119.514 101.604 119.892C98.976 120.492 96.15 111.75 96.582 109.818C97.014 107.886 99.144 106.926 99.144 106.926C99.1464 105.809 99.5758 104.736 100.344 103.926C101.826 102.126 108.432 102.594 108.432 102.594C108.598 101.686 108.976 100.831 109.536 100.098C109.669 99.9143 109.838 99.7597 110.033 99.6437C110.227 99.5277 110.444 99.4528 110.669 99.4236C110.893 99.3944 111.122 99.4115 111.34 99.4738C111.558 99.5361 111.761 99.6423 111.936 99.786C111.717 100.342 111.626 100.942 111.672 101.538C111.792 103.518 113.358 103.164 112.95 101.436C112.822 100.782 112.462 100.196 111.936 99.786C112.452 98.478 113.628 97.824 114.528 98.262C116.148 99.072 118.44 105.6 115.722 108.504Z" fill="#263238"/>
<path d="M110.25 120.486C109.68 120.598 109.089 120.549 108.546 120.342C108.002 120.136 107.527 119.781 107.175 119.318C106.823 118.856 106.608 118.304 106.554 117.725C106.501 117.146 106.61 116.563 106.871 116.044C107.131 115.524 107.532 115.088 108.028 114.785C108.525 114.481 109.096 114.324 109.677 114.329C110.258 114.334 110.827 114.502 111.317 114.814C111.808 115.126 112.201 115.57 112.452 116.094V116.094C112.807 116.837 112.854 117.69 112.582 118.467C112.31 119.244 111.741 119.881 111 120.24C110.763 120.357 110.51 120.44 110.25 120.486V120.486ZM109.122 114.792C108.902 114.836 108.689 114.907 108.486 115.002C107.865 115.297 107.38 115.817 107.13 116.457C106.879 117.096 106.882 117.808 107.138 118.445C107.393 119.083 107.882 119.599 108.505 119.889C109.128 120.179 109.838 120.22 110.491 120.005C111.143 119.789 111.689 119.333 112.017 118.73C112.345 118.126 112.43 117.42 112.256 116.755C112.081 116.091 111.66 115.518 111.078 115.153C110.495 114.788 109.796 114.659 109.122 114.792V114.792Z" fill="#FFC727"/>
<path d="M116.886 118.29C115.686 118.464 114.486 117.414 114.036 115.848C113.822 115.103 113.845 114.311 114.102 113.58C114.193 113.259 114.366 112.966 114.604 112.732C114.841 112.497 115.136 112.327 115.458 112.24C115.781 112.152 116.12 112.15 116.444 112.232C116.768 112.314 117.065 112.479 117.306 112.71C117.899 113.212 118.319 113.888 118.506 114.642C118.956 116.292 118.32 117.912 117.084 118.242L116.886 118.29ZM115.722 112.614L115.566 112.644C115.314 112.725 115.085 112.866 114.898 113.054C114.711 113.242 114.572 113.471 114.492 113.724C114.263 114.374 114.244 115.079 114.438 115.74C114.828 117.174 115.962 118.14 116.976 117.846C117.99 117.552 118.494 116.184 118.104 114.75C117.94 114.08 117.569 113.479 117.042 113.034C116.864 112.875 116.654 112.755 116.427 112.683C116.199 112.61 115.959 112.587 115.722 112.614V112.614Z" fill="#FFC727"/>
<path d="M112.464 116.472L112.116 116.25C112.44 115.728 113.316 114.888 114.288 115.428L114.084 115.788C113.214 115.302 112.494 116.4 112.464 116.472Z" fill="#FFC727"/>
<path d="M99.528 121.5L99.114 121.428C99.15 121.236 99.45 119.55 100.314 119.118C101.178 118.686 106.56 117.504 106.788 117.45L106.878 117.858C105.312 118.206 101.106 119.178 100.5 119.49C99.894 119.802 99.6 121.032 99.528 121.5Z" fill="#FFC727"/>
<path d="M103.2 120.438C103.2 120.438 100.2 117.3 98.736 118.428C97.272 119.556 99.936 124.368 101.898 124.77C102.149 124.841 102.411 124.86 102.669 124.827C102.928 124.793 103.177 124.708 103.401 124.576C103.625 124.443 103.821 124.267 103.975 124.057C104.129 123.847 104.239 123.608 104.298 123.354L103.2 120.438Z" fill="#C95F50"/>
<path d="M99.5339 119.79C99.4979 119.79 99.5339 119.832 99.5339 119.838C100.932 120.168 101.814 121.278 102.492 122.466C102.395 122.347 102.273 122.25 102.135 122.182C101.997 122.114 101.845 122.077 101.692 122.073C101.538 122.069 101.385 122.098 101.243 122.159C101.102 122.219 100.975 122.31 100.872 122.424C100.842 122.454 100.872 122.502 100.92 122.49C101.14 122.382 101.388 122.345 101.631 122.382C101.873 122.42 102.098 122.531 102.276 122.7C102.57 122.987 102.831 123.305 103.056 123.648C103.134 123.756 103.338 123.648 103.272 123.528C103.02 121.8 101.358 119.676 99.5339 119.79Z" fill="#263238"/>
<path d="M97.656 146.586C100.704 165.246 108.306 177.366 111.864 177.954C121.434 179.532 137.622 163.878 142.464 160.206C144.414 158.718 128.496 145.398 126.618 147.222C122.178 151.518 116.214 158.262 115.902 158.334C115.302 158.484 113.022 154.242 105.378 142.242C99.174 132.528 96.414 138.96 97.656 146.586Z" fill="#C95F50"/>
<path d="M151.308 129.234C152.634 131.25 147.384 134.088 147.384 134.088C148.424 134.094 149.429 134.466 150.222 135.138C151.566 136.38 150.222 139.038 150.222 139.038C151.299 139.27 152.281 139.819 153.042 140.616C154.206 141.936 153.21 144.816 153.21 144.816C154.067 145.587 154.633 146.629 154.812 147.768C155.412 152.868 144.288 160.158 140.676 161.568L126.078 148.368C126.078 148.368 131.478 136.26 135.906 133.134C138.336 131.4 149.286 126.15 151.308 129.234Z" fill="#C95F50"/>
<path d="M147.306 134.058C144.168 135.006 141.258 136.704 138.468 138.372C138.408 138.408 138.468 138.504 138.528 138.468C141.282 136.776 144.558 135.78 147.372 134.202C147.45 134.16 147.39 134.034 147.306 134.058Z" fill="#263238"/>
<path d="M150 138.876C149.305 139.16 148.652 139.535 148.056 139.992C147.396 140.43 146.748 140.88 146.106 141.342C144.816 142.266 143.544 143.22 142.308 144.216C142.248 144.258 142.308 144.354 142.362 144.312C143.652 143.388 144.954 142.512 146.274 141.624C146.94 141.192 147.606 140.766 148.278 140.346C148.934 139.985 149.549 139.554 150.114 139.062C150.186 138.984 150.102 138.84 150 138.876Z" fill="#263238"/>
<path d="M153.138 144.852C152.516 145.117 151.944 145.486 151.446 145.944L149.7 147.234C148.536 148.086 147.366 148.944 146.172 149.754C146.159 149.762 146.15 149.775 146.147 149.789C146.143 149.804 146.146 149.819 146.154 149.832C146.162 149.845 146.175 149.854 146.189 149.857C146.204 149.861 146.219 149.858 146.232 149.85C147.432 149.034 148.68 148.23 149.892 147.396C150.492 146.988 151.092 146.58 151.692 146.196C152.267 145.869 152.778 145.442 153.204 144.936C153.215 144.927 153.222 144.914 153.224 144.9C153.226 144.886 153.222 144.872 153.213 144.861C153.204 144.85 153.191 144.843 153.177 144.841C153.163 144.839 153.149 144.843 153.138 144.852V144.852Z" fill="#263238"/>
<path d="M154.2 146.1C154.745 146.887 154.989 147.842 154.89 148.794C154.766 149.746 154.4 150.651 153.828 151.422C152.751 152.962 151.499 154.372 150.096 155.622C148.709 156.885 147.224 158.036 145.656 159.066C144.089 160.095 142.432 160.981 140.706 161.712H140.748C139.648 162.616 138.54 163.506 137.424 164.382C138.444 163.39 139.476 162.414 140.52 161.454C142.187 160.639 143.791 159.703 145.32 158.652C146.845 157.61 148.302 156.471 149.682 155.244C151.066 154.029 152.334 152.687 153.468 151.236C154.033 150.537 154.426 149.715 154.614 148.836C154.802 147.904 154.655 146.935 154.2 146.1V146.1Z" fill="#263238"/>
<path d="M99.534 161.754L114.216 154.2C114.216 154.2 108.732 144.066 103.8 139.14C98.868 134.214 96.6 137.724 96.984 144.486C97.368 151.248 99.534 161.754 99.534 161.754Z" fill="#C7C7C7"/>
<path d="M111.6 151.356C109.23 152.328 102.888 155.154 99 157.554C99 157.554 99 157.668 99.048 157.656C102.576 156.174 109.38 152.688 111.648 151.506C111.708 151.482 111.642 151.338 111.6 151.356Z" fill="#263238"/>
<path d="M261.96 229.5C261.36 231.096 232.35 267.168 230.37 267.846C229.626 268.104 224.124 264.186 217.614 259.26C216.21 258.198 214.764 257.088 213.3 255.954C203.802 248.616 193.896 240.6 193.896 240.6L213.234 216.414L232.11 232.428L236.256 235.938C236.256 235.938 253.542 227.1 255.786 226.59C258.03 226.08 262.548 227.898 261.96 229.5Z" fill="#C95F50"/>
<path d="M261.96 229.5C261.36 231.096 232.35 267.168 230.37 267.846C229.458 268.158 221.532 262.308 213.3 255.954L232.11 232.44L236.256 235.95C236.256 235.95 253.542 227.112 255.786 226.602C258.03 226.092 262.548 227.898 261.96 229.5Z" fill="white"/>
<path d="M261.96 229.5C261.36 231.096 232.35 267.168 230.37 267.846C229.626 268.104 224.124 264.186 217.614 259.26L236.256 235.95C236.256 235.95 253.542 227.112 255.786 226.602C258.03 226.092 262.548 227.898 261.96 229.5Z" fill="#FFC727"/>
<path d="M260.1 228.852C255.084 234.78 235.428 259.158 230.922 265.398C230.886 265.452 230.922 265.476 230.964 265.428C236.058 259.662 255.516 235.128 260.196 228.936C260.298 228.804 260.208 228.732 260.1 228.852Z" fill="#263238"/>
<path d="M252.6 227.874C252.043 228.532 251.628 229.298 251.381 230.124C251.134 230.95 251.061 231.818 251.166 232.674C251.346 234.217 252.113 235.631 253.308 236.622C253.344 236.652 253.398 236.586 253.368 236.55C252.335 235.382 251.708 233.909 251.584 232.354C251.46 230.799 251.844 229.246 252.678 227.928C252.683 227.918 252.684 227.906 252.681 227.895C252.678 227.884 252.672 227.874 252.662 227.868C252.653 227.861 252.641 227.858 252.63 227.859C252.619 227.86 252.608 227.866 252.6 227.874V227.874Z" fill="#263238"/>
<path d="M238.746 234.09C236.76 236.49 235.362 239.976 236.13 243.09C236.16 243.21 236.328 243.162 236.352 243.06C236.944 240.053 237.857 237.118 239.076 234.306C239.105 234.262 239.115 234.209 239.104 234.158C239.093 234.106 239.063 234.062 239.019 234.033C238.975 234.004 238.922 233.994 238.871 234.005C238.82 234.016 238.775 234.046 238.746 234.09Z" fill="#263238"/>
<path d="M240.972 232.8C238.992 235.2 237.594 238.686 238.362 241.8C238.392 241.92 238.56 241.878 238.584 241.8C239.176 238.791 240.089 235.854 241.308 233.04C241.34 232.995 241.353 232.94 241.344 232.886C241.335 232.832 241.305 232.784 241.26 232.752C241.215 232.72 241.16 232.707 241.106 232.716C241.052 232.725 241.004 232.755 240.972 232.8V232.8Z" fill="#263238"/>
<path d="M243.204 231.522C241.224 233.922 239.82 237.408 240.594 240.522C240.624 240.642 240.792 240.6 240.81 240.522C241.406 237.513 242.322 234.577 243.54 231.762C243.572 231.717 243.585 231.662 243.576 231.608C243.567 231.554 243.537 231.506 243.492 231.474C243.447 231.442 243.392 231.429 243.338 231.438C243.284 231.447 243.236 231.477 243.204 231.522V231.522Z" fill="#263238"/>
<path d="M245.436 230.244C243.456 232.644 242.052 236.13 242.826 239.244C242.826 239.364 243.024 239.316 243.042 239.244C243.636 236.237 244.549 233.303 245.766 230.49C245.799 230.446 245.812 230.391 245.805 230.337C245.797 230.283 245.768 230.235 245.724 230.202C245.68 230.169 245.625 230.155 245.571 230.163C245.517 230.171 245.469 230.2 245.436 230.244Z" fill="#263238"/>
<path d="M226.422 259.242C224.244 261.96 228.468 265.35 230.652 262.62C232.836 259.89 228.6 256.512 226.422 259.242Z" fill="white"/>
<path d="M234.39 226.278C232.386 226.686 232.14 229.026 232.59 230.634C233.406 233.381 234.931 235.864 237.012 237.834C237.02 237.844 237.03 237.852 237.041 237.858C237.053 237.863 237.065 237.866 237.078 237.866C237.091 237.866 237.103 237.863 237.115 237.858C237.126 237.852 237.136 237.844 237.144 237.834C237.198 237.86 237.257 237.873 237.316 237.872C237.376 237.872 237.434 237.857 237.487 237.83C237.54 237.802 237.586 237.763 237.621 237.715C237.657 237.666 237.68 237.611 237.69 237.552C237.882 234.87 238.422 232.026 237.786 229.368C237.414 227.772 236.28 225.894 234.39 226.278ZM237.144 233.4C237.078 234.726 236.952 236.034 236.94 237.36C236.039 235.987 235.208 234.569 234.45 233.112C234.094 232.399 233.785 231.663 233.526 230.91C233.154 229.74 233.04 225.738 235.866 227.616C237.426 228.636 237.222 231.81 237.144 233.4Z" fill="#263238"/>
<path d="M233.064 244.542C235.086 242.694 236.232 240.042 237.576 237.714C237.602 237.66 237.615 237.6 237.614 237.54C237.612 237.48 237.596 237.421 237.568 237.368C237.539 237.316 237.498 237.27 237.448 237.237C237.399 237.203 237.342 237.181 237.282 237.174C237.283 237.161 237.281 237.149 237.277 237.137C237.272 237.125 237.265 237.114 237.256 237.106C237.246 237.097 237.235 237.091 237.223 237.087C237.211 237.083 237.198 237.082 237.186 237.084C234.365 237.546 231.715 238.74 229.5 240.546C228.228 241.62 227.1 243.702 228.546 245.16C229.992 246.618 231.888 245.622 233.064 244.542ZM230.514 244.896C227.118 244.866 229.458 241.614 230.424 240.858C231.06 240.379 231.727 239.944 232.422 239.556C233.867 238.775 235.351 238.068 236.868 237.438C236.136 238.542 235.506 239.694 234.816 240.828C234 242.172 232.386 244.914 230.514 244.896V244.896Z" fill="#263238"/>
<path d="M231.102 228.786L210.972 255.942L143.052 208.8L136.506 204.252C136.506 204.252 134.652 205.5 131.856 207.042C127.98 209.184 122.298 211.902 117.27 212.64C108.87 213.888 94.764 213.756 87.654 204.24C81.654 196.236 84.918 185.796 84.918 185.796L94.2 181.854C94.2 181.854 116.112 163.596 130.302 163.05C136.332 162.81 145.11 167.376 153.234 172.152C161.358 176.928 231.102 228.786 231.102 228.786Z" fill="#37474F"/>
<path d="M136.506 204.27C136.506 204.27 134.652 205.518 131.856 207.06C126.924 201.156 116.478 190.422 116.16 190.044L136.506 204.27Z" fill="#263238"/>
<path d="M102.204 175.74C100.896 176.652 99.63 177.618 98.34 178.548C97.05 179.478 95.754 180.348 94.548 181.332C93.342 182.316 92.148 183.444 90.996 184.542C90.438 185.07 89.886 185.604 89.346 186.156C88.7755 186.683 88.2479 187.255 87.768 187.866C87.726 187.926 87.81 187.992 87.864 187.956C88.4792 187.517 89.0663 187.04 89.622 186.528L91.422 184.974C92.622 183.972 93.822 183 94.98 181.974C96.138 180.948 97.224 179.886 98.382 178.878C99.54 177.87 100.926 176.79 102.21 175.764L102.204 175.74Z" fill="#263238"/>
<path d="M226.374 227.814C225.066 229.224 223.86 230.742 222.642 232.23C221.424 233.718 220.2 235.23 218.994 236.73C216.594 239.73 214.146 242.73 211.794 245.796C210.492 247.47 209.202 249.156 207.99 250.902C207.936 250.98 208.062 251.064 208.122 250.998C210.72 248.142 213.096 245.094 215.502 242.082C217.908 239.07 220.302 236.04 222.702 232.986C223.998 231.312 225.33 229.65 226.524 227.904C226.542 227.832 226.428 227.754 226.374 227.814Z" fill="#263238"/>
<path d="M170.634 228.09C167.256 225.426 163.752 222.912 160.248 220.416C156.744 217.92 153.276 215.442 149.742 213.03C148.722 212.334 147.696 211.656 146.676 210.978C145.656 210.3 144.588 209.67 143.592 208.968C143.532 208.926 143.478 209.022 143.538 209.064C144.456 209.724 145.338 210.462 146.226 211.146C147.114 211.83 147.942 212.46 148.812 213.102C150.51 214.356 152.226 215.592 153.936 216.828C157.404 219.336 160.902 221.806 164.43 224.238C166.44 225.612 168.432 226.992 170.484 228.3C170.604 228.378 170.748 228.18 170.634 228.09Z" fill="#263238"/>
<path d="M192.354 200.07C189.234 197.484 185.886 195.156 182.61 192.762C179.334 190.368 176.01 187.902 172.686 185.496L162.792 178.35C159.594 176.034 156.414 173.688 153.036 171.642C151.188 170.526 149.298 169.488 147.348 168.552C145.459 167.589 143.492 166.786 141.468 166.152C141.454 166.146 141.439 166.146 141.426 166.152C141.412 166.158 141.402 166.168 141.396 166.182C141.39 166.196 141.39 166.211 141.396 166.224C141.402 166.238 141.412 166.248 141.426 166.254C143.094 167.184 144.84 167.97 146.52 168.864C148.2 169.758 149.826 170.664 151.44 171.66C154.794 173.694 157.956 176.004 161.136 178.29C167.736 183.036 174.336 187.806 180.978 192.486C184.698 195.108 188.34 197.886 192.204 200.286C192.324 200.352 192.468 200.166 192.354 200.07Z" fill="#263238"/>
<path d="M267.048 167.334C259.716 177.264 252.048 188.79 250.206 201.24C250.206 201.432 250.488 201.492 250.53 201.306C251.383 197.909 252.476 194.577 253.8 191.334C258.6 190.008 263.352 188.934 265.884 184.134C268.464 179.214 268.134 172.8 267.648 167.442C267.6 167.154 267.198 167.142 267.048 167.334Z" fill="#FFC727"/>
<path d="M253.848 191.238C257.142 183.846 261.372 176.424 266.748 170.346C266.784 170.304 266.838 170.346 266.802 170.406C263.286 174.732 260.61 179.448 258 184.248C260.43 181.782 263.088 179.574 265.386 176.958C265.434 176.91 265.506 176.958 265.464 177.036C263.178 179.772 260.664 182.754 257.706 184.782C256.906 186.25 256.106 187.724 255.306 189.204L255.906 188.892C255.942 188.892 255.972 188.928 255.936 188.946C255.714 189.06 255.486 189.18 255.252 189.282C254.868 189.978 254.484 190.68 254.088 191.376C253.992 191.532 253.8 191.4 253.848 191.238Z" fill="#263238"/>
<path d="M256.296 188.658C258.27 187.559 260.152 186.303 261.924 184.902C261.972 184.866 262.044 184.932 261.996 184.974C260.275 186.458 258.391 187.743 256.38 188.802C256.284 188.844 256.2 188.712 256.296 188.658Z" fill="#263238"/>
<path d="M249.36 199.392C249.36 199.542 249.63 199.536 249.63 199.392C249.666 195.288 249.63 191.166 249.69 187.05C250.746 184.926 252.996 183.756 254.568 182.058C255.693 180.815 256.674 179.448 257.49 177.984C259.383 174.483 260.538 170.632 260.886 166.668C261.318 162.282 259.656 147.804 257.802 148.308C256.848 148.572 253.74 155.742 252.918 158.112C251.583 162.015 250.607 166.032 250.002 170.112C248.502 179.766 248.628 189.678 249.36 199.392Z" fill="#FFC727"/>
<path d="M249.33 181.698C249.558 176.508 250.722 171.27 251.82 166.236C253.02 160.836 254.376 155.712 257.166 150.876C257.176 150.858 257.194 150.844 257.214 150.839C257.234 150.833 257.256 150.836 257.274 150.846C257.292 150.856 257.306 150.874 257.311 150.894C257.317 150.914 257.314 150.936 257.304 150.954C255.445 154.715 254.004 158.669 253.008 162.744C253.194 162.456 253.422 162.18 253.608 161.904C253.68 161.79 253.86 161.904 253.788 162.006C253.537 162.434 253.243 162.836 252.912 163.206C252.912 163.206 252.912 163.206 252.876 163.206C251.916 167.082 251.226 171.048 250.638 175.002C250.679 174.947 250.723 174.895 250.77 174.846C250.8 174.846 250.848 174.846 250.83 174.894C250.758 175.026 250.674 175.158 250.596 175.284C250.296 177.294 249.996 179.298 249.744 181.284C253.344 178.23 256.344 174.63 258.09 170.19C258.09 170.19 258.132 170.19 258.126 170.19C256.44 174.792 253.782 178.878 249.69 181.674C249.612 182.208 249.54 182.742 249.462 183.276C249.462 183.384 249.27 183.354 249.27 183.276C249.27 182.802 249.27 182.328 249.312 181.854C249.294 181.831 249.287 181.801 249.29 181.772C249.293 181.743 249.308 181.717 249.33 181.698V181.698Z" fill="#263238"/>
<path d="M251.016 174.18C253.746 170.106 256.296 166.146 258.294 161.64C258.299 161.628 258.308 161.618 258.32 161.613C258.332 161.608 258.345 161.608 258.357 161.613C258.369 161.618 258.379 161.627 258.384 161.639C258.389 161.651 258.389 161.664 258.384 161.676C256.698 166.152 254.34 170.676 251.148 174.276C251.088 174.36 250.956 174.264 251.016 174.18Z" fill="#263238"/>
<path d="M254.646 160.632C255.774 158.628 256.968 156.684 258.03 154.632C258.06 154.572 258.138 154.632 258.114 154.68C257.242 156.809 256.138 158.836 254.82 160.722C254.742 160.836 254.58 160.746 254.646 160.632Z" fill="#263238"/>
<path d="M246.6 187.53C246.541 190.245 246.215 192.948 245.628 195.6L245.754 196.482C246.587 193.549 247.072 190.528 247.2 187.482C247.224 187.44 247.236 187.392 247.236 187.344C247.236 187.296 247.224 187.248 247.2 187.206V187.206C247.315 183.118 247.012 179.028 246.294 175.002C245.022 167.466 242.25 160.23 236.988 154.602C236.945 154.56 236.892 154.529 236.834 154.513C236.777 154.496 236.716 154.493 236.657 154.505C236.598 154.517 236.542 154.542 236.496 154.58C236.449 154.618 236.412 154.667 236.388 154.722C234.264 160.122 235.008 166.548 236.814 171.93C237.795 174.843 239.198 177.596 240.978 180.102C242.82 182.616 245.118 184.758 246.6 187.53Z" fill="#FFC727"/>
<path d="M237.6 157.098C242.58 165.186 246.048 174.774 246.474 184.326C246.474 184.494 246.198 184.536 246.174 184.362C246.054 183.504 245.922 182.658 245.784 181.806C243.72 179.832 241.584 177.75 240.132 175.284C240.102 175.236 240.168 175.188 240.198 175.224C241.907 177.333 243.743 179.337 245.694 181.224C245.334 179.118 244.914 177.024 244.41 174.99L244.02 174.528C243.93 174.426 244.074 174.276 244.164 174.378L244.284 174.51C243.592 171.69 242.728 168.915 241.698 166.2C240.432 164.688 239.01 163.38 238.098 161.556C238.098 161.514 238.14 161.478 238.164 161.52C238.908 162.558 239.628 163.608 240.468 164.574C240.804 164.964 241.176 165.324 241.524 165.696C240.376 162.765 239.012 159.923 237.444 157.194C237.446 157.176 237.451 157.159 237.461 157.144C237.47 157.129 237.483 157.116 237.498 157.107C237.513 157.097 237.53 157.092 237.548 157.09C237.566 157.089 237.583 157.091 237.6 157.098V157.098Z" fill="#263238"/>
<path d="M238.632 167.076C240.24 169.242 242.076 171.312 243.576 173.55C243.618 173.616 243.522 173.682 243.468 173.628C241.548 171.828 239.916 169.362 238.524 167.136C238.482 167.07 238.584 167.01 238.632 167.076Z" fill="#263238"/>
<path d="M243.798 174.054L243.87 174.12C243.918 174.168 243.84 174.24 243.792 174.192L243.726 174.126C243.717 174.116 243.711 174.103 243.711 174.09C243.711 174.076 243.717 174.064 243.726 174.054C243.736 174.044 243.749 174.039 243.762 174.039C243.776 174.039 243.789 174.044 243.798 174.054V174.054Z" fill="#263238"/>
<path d="M229.8 172.644C230.391 177.159 232.209 181.426 235.056 184.98C236.231 186.373 237.684 187.505 239.322 188.304C241.17 189.216 243.102 190.272 245.01 191.022C245.918 193.333 246.594 195.729 247.026 198.174C247.086 197.97 247.146 197.748 247.212 197.544C245.982 187.008 239.166 178.008 230.454 172.23C230.386 172.186 230.306 172.162 230.225 172.161C230.143 172.161 230.063 172.184 229.994 172.227C229.926 172.271 229.871 172.333 229.836 172.407C229.802 172.481 229.789 172.563 229.8 172.644V172.644Z" fill="#FFC727"/>
<path d="M232.83 175.758C232.77 175.704 232.83 175.59 232.92 175.638C237.71 179.2 241.529 183.908 244.026 189.33C244.092 189.474 243.894 189.6 243.81 189.456C243.408 188.748 242.994 188.058 242.574 187.38C240.582 187.002 238.698 185.58 237.222 184.272C237.18 184.236 237.222 184.182 237.282 184.218C238.043 184.909 238.887 185.502 239.796 185.982C240.612 186.396 241.482 186.654 242.328 186.984C241.59 185.814 240.822 184.692 240.018 183.606C237.862 182.788 235.84 181.654 234.018 180.24C234.005 180.232 233.996 180.219 233.993 180.205C233.99 180.19 233.992 180.175 234 180.162C234.008 180.149 234.021 180.14 234.035 180.137C234.05 180.133 234.065 180.136 234.078 180.144C235.876 181.232 237.73 182.224 239.634 183.114C238.419 181.513 237.108 179.986 235.71 178.542C235.032 178.182 234.348 177.828 233.694 177.444C233.681 177.438 233.67 177.428 233.664 177.414C233.659 177.401 233.658 177.386 233.664 177.372C233.67 177.358 233.68 177.348 233.694 177.342C233.707 177.336 233.723 177.336 233.736 177.342C234.28 177.534 234.8 177.789 235.284 178.104C234.51 177.306 233.7 176.52 232.83 175.758Z" fill="#263238"/>
<path d="M233.016 179.4C233.136 179.469 233.248 179.549 233.352 179.64C233.382 179.64 233.352 179.706 233.31 179.694C233.19 179.635 233.074 179.569 232.962 179.496C232.902 179.448 232.956 179.352 233.016 179.4Z" fill="#263238"/>
<path d="M260.832 220.98H236.946L238.872 199.23L239.298 194.43H258.48L258.906 199.23L260.832 220.98Z" fill="#455A64"/>
<path d="M258.906 199.23H238.872L239.298 194.43H258.48L258.906 199.23Z" fill="#263238"/>
<path d="M259.62 191.076H238.152V195.822H259.62V191.076Z" fill="#455A64"/>
</svg>
