<svg id="Layer_1" data-name="Layer 1" xmlns="http://www.w3.org/2000/svg" viewBox="0 0 300 300"><defs><style>.cls-1{fill:#d8c5bf;}.cls-2{fill:#edddd6;}.cls-3{fill:#7c6053;}.cls-4{fill:#fcb35b;}.cls-5{fill:#f27e64;}.cls-6{fill:#fff;}.cls-7{fill:#ffbf69;}.cls-8{fill:#7772d3;}.cls-9{fill:#e56445;}.cls-10{fill:#fca397;}.cls-11{fill:#507849;}.cls-12{fill:#46467f;}.cls-13{fill:#f7734f;}.cls-14{fill:#ada9c4;}.cls-15{fill:#6c6b7c;}</style></defs><title>student_management-01-01</title><rect class="cls-1" x="-101.25" y="0.53" width="510.51" height="299.76"/><path class="cls-2" d="M92,58.43A34.43,34.43,0,0,1,87.2,76c-.11.2-.23.39-.36.59-.28.46-.58.93-.89,1.38l-.4.56A35.57,35.57,0,0,1,66.06,92.14l-.51.14a36.39,36.39,0,0,1-9.11,1.16A35.62,35.62,0,0,1,27,78c-.6-.86-1.16-1.77-1.67-2.68A34.4,34.4,0,0,1,20.9,58.43c0-19.34,15.91-35,35.54-35S92,39.09,92,58.43Z"/><path class="cls-2" d="M186.65,58.43A34.63,34.63,0,0,1,178.29,81c-.66.76-1.35,1.5-2.07,2.21a34.28,34.28,0,0,1-3.72,3.18c-.64.48-1.3.94-2,1.37a1.88,1.88,0,0,1-.24.14,30.31,30.31,0,0,1-3,1.7l-.71.35c-1.11.53-2.24,1-3.4,1.42a36,36,0,0,1-4.76,1.33,36.61,36.61,0,0,1-7.31.74c-1.08,0-2.14,0-3.19-.14a31.75,31.75,0,0,1-3.25-.45c-.6-.1-1.18-.22-1.76-.36A33.84,33.84,0,0,1,138,91a34.63,34.63,0,0,1-4.09-1.91,4.79,4.79,0,0,1-.45-.25,29.12,29.12,0,0,1-2.61-1.62,26.35,26.35,0,0,1-2.12-1.57l-.24-.18c-1-.8-1.9-1.64-2.79-2.53-.25-.25-.49-.5-.73-.76-.68-.72-1.33-1.47-1.93-2.24s-1.18-1.56-1.71-2.37a34.44,34.44,0,0,1-5.76-19.1c0-19.34,15.92-35,35.55-35S186.65,39.09,186.65,58.43Z"/><path class="cls-2" d="M281.32,58.43a34.46,34.46,0,0,1-5.56,18.8,35.45,35.45,0,0,1-9.72,10,35.6,35.6,0,0,1-20.26,6.25h-.84a35.65,35.65,0,0,1-22.39-8.5,36.47,36.47,0,0,1-3-2.85,34.58,34.58,0,0,1-9.34-23.65c0-19.34,15.92-35,35.55-35S281.32,39.09,281.32,58.43Z"/><path class="cls-2" d="M92,149.33a34.5,34.5,0,0,1-5.2,18.25,35.86,35.86,0,0,1-57.16,4.71,34.57,34.57,0,0,1-8.72-23c0-19.34,15.91-35,35.54-35S92,130,92,149.33Z"/><path class="cls-2" d="M186.65,149.33A34.4,34.4,0,0,1,184,162.61a35.42,35.42,0,0,1-23.33,20.44c-.72.21-1.46.39-2.21.54a36.29,36.29,0,0,1-7.35.75,35.42,35.42,0,0,1-3.73-.19c-.8-.08-1.59-.19-2.38-.33-1-.18-2.05-.4-3.05-.66a33.65,33.65,0,0,1-4-1.3,35.48,35.48,0,0,1-18.08-15.78,34.42,34.42,0,0,1-4.33-16.75c0-19.34,15.92-35,35.55-35S186.65,130,186.65,149.33Z"/><path class="cls-2" d="M281.32,149.33a34.44,34.44,0,0,1-4.64,17.29,35.22,35.22,0,0,1-8,9.44,35.57,35.57,0,0,1-11.58,6.45,36.15,36.15,0,0,1-11.36,1.83,35.67,35.67,0,0,1-26.5-11.68c-.39-.42-.76-.86-1.13-1.3a34.71,34.71,0,0,1-7.92-22c0-19.34,15.92-35,35.55-35S281.32,130,281.32,149.33Z"/><path class="cls-2" d="M92.54,239.72a34.54,34.54,0,0,1-8,22.17A36.18,36.18,0,0,1,81.57,265a35.13,35.13,0,0,1-6.92,5.1,36,36,0,0,1-23.9,4.07A32.39,32.39,0,0,1,46,273,35.58,35.58,0,0,1,33.46,266a34.68,34.68,0,0,1-12-26.24c0-19.33,15.92-35,35.55-35S92.54,220.39,92.54,239.72Z"/><path class="cls-2" d="M187.21,239.72a34.49,34.49,0,0,1-3.36,14.87,35.82,35.82,0,0,1-61.6,4.8,34.49,34.49,0,0,1-6.13-19.67c0-19.33,15.92-35,35.55-35S187.21,220.39,187.21,239.72Z"/><path class="cls-2" d="M281.87,239.72a34.34,34.34,0,0,1-4.12,16.38A35.85,35.85,0,0,1,234,272.55a34.92,34.92,0,0,1-5.57-2.61,35.28,35.28,0,0,1-10-8.62,34.53,34.53,0,0,1-7.56-21.6c0-19.33,15.91-35,35.54-35S281.87,220.39,281.87,239.72Z"/><path class="cls-3" d="M259.11,258.82,234,272.55a34.92,34.92,0,0,1-5.57-2.61,35.28,35.28,0,0,1-10-8.62c2.64-5.52,8.9-15.09,21.49-18.12a13.42,13.42,0,0,1,6.76,0C256,245.72,259.11,258.82,259.11,258.82Z"/><path d="M236.37,141.86s-8.26,6.14-8.88,13.6c-.93,11.29,12.1,6.35,13.53-.85S236.37,141.86,236.37,141.86Z"/><path class="cls-4" d="M268.72,176.06a35.57,35.57,0,0,1-11.58,6.45,36.15,36.15,0,0,1-11.36,1.83,35.67,35.67,0,0,1-26.5-11.68c-.39-.42-.76-.86-1.13-1.3l22.5-16.05.87-.63,8.83.71,3.67.29Z"/><path d="M235.63,141.09a10.25,10.25,0,0,1-2.12-8.27c.58-3.41,2.12-4.52,2.12-4.52s-2.35-4.65,4.64-4.37a19.83,19.83,0,0,1,11.1,3.66,3.29,3.29,0,0,1,4.62,2.12c1.43,3.67,0,9.08,0,9.08Z"/><path class="cls-4" d="M241.52,155.25l-22.24,17.41c-.39-.42-.76-.86-1.13-1.3a34.74,34.74,0,0,1-2.87-4c.68-.61,1.4-1.22,2.14-1.82,10.19-8.38,20.27-9.92,23.23-10.19C241.22,155.25,241.52,155.25,241.52,155.25Z"/><path class="cls-5" d="M251,146.76l-.18,9s-1.58,2.54-6.58,2.81c-3.73.2-4.87-1.85-4.87-1.85l1-7.83,9.06-1.8Z"/><path class="cls-4" d="M276.68,166.62a35.22,35.22,0,0,1-8,9.44,35.57,35.57,0,0,1-11.58,6.45l5.74-6.9-12.53-20.22-.09-.14a32.86,32.86,0,0,1,3.76.43C259.29,156.54,269.1,159.11,276.68,166.62Z"/><path d="M251,146.25a3.06,3.06,0,0,1-.27.81c-2,4.15-8.78,5.73-10.93,5.86l.62-4.13Z"/><path class="cls-5" d="M239,129.59s-4.74,10.42-3.12,16.32,7.06,5,10.32,3.91a10.74,10.74,0,0,0,4.8-3,4.64,4.64,0,0,0,5.09-1.72c2.06-2.77.84-6-.89-6.73s-3.81.47-3.81.47l1.65-3S246.36,120.24,239,129.59Z"/><path d="M251.36,138.79s-4.57.91-7.74-4.1-2.88-7.07-2.88-7.07l-3.16,5.17s-.71-3.58.74-5.87,3-1.81,3-1.81l10.08,2.48,2.65,7.95Z"/><path d="M239.34,142.93a.38.38,0,0,1-.37-.26c-.7-2.26.92-4.55,1-4.64a.38.38,0,0,1,.53-.09.37.37,0,0,1,.09.52s-1.47,2.09-.88,4a.38.38,0,0,1-.25.47Z"/><path d="M251.8,143.74a.37.37,0,0,1-.27-.63l2.89-3a.39.39,0,0,1,.54,0,.37.37,0,0,1,0,.53l-2.89,3A.39.39,0,0,1,251.8,143.74Z"/><path d="M254.86,142.94h-.06l-2-.31a.38.38,0,0,1-.32-.43.38.38,0,0,1,.43-.31l2,.3a.38.38,0,0,1-.06.75Z"/><path d="M243.16,145.93a5.31,5.31,0,0,1-2.31-.77.37.37,0,0,1,0-.65l3.22-1.66a.42.42,0,0,1,.33,0,.36.36,0,0,1,.21.24c0,.07.53,1.77-.54,2.57A1.52,1.52,0,0,1,243.16,145.93Zm-1.28-1.09c.61.27,1.39.49,1.75.22a1.43,1.43,0,0,0,.36-1.31Z"/><path d="M237.29,134.36a.38.38,0,0,1-.37-.31.37.37,0,0,1,.3-.43l1.89-.33a.39.39,0,0,1,.44.31.37.37,0,0,1-.31.43l-1.88.33Z"/><path d="M245.13,135.58a.38.38,0,0,1-.17,0L241.87,134a.37.37,0,0,1-.17-.51.39.39,0,0,1,.51-.16l3.1,1.54a.38.38,0,0,1,.16.51A.37.37,0,0,1,245.13,135.58Z"/><path d="M257.14,141.86a18.18,18.18,0,0,1,5.65,14.8c-.93,9.17-10.16,8-12.1,4.65-2.93-5.07.28-14.54.28-14.54S256.63,147.7,257.14,141.86Z"/><path d="M237.29,138.66l-.11,0a.37.37,0,0,1-.25-.47l.52-1.69-.45-.56a.37.37,0,0,1,.05-.53.39.39,0,0,1,.54.06l.58.71a.34.34,0,0,1,.07.35l-.59,1.88A.37.37,0,0,1,237.29,138.66Z"/><path d="M243.06,139.17l-.11,0a.38.38,0,0,1-.25-.47l.53-1.69-.68-.78a.37.37,0,0,1,0-.53.39.39,0,0,1,.54,0l.81.94a.35.35,0,0,1,.08.35l-.59,1.89A.39.39,0,0,1,243.06,139.17Z"/><path class="cls-6" d="M244.23,158.91a8.14,8.14,0,0,1-5.19-1.77.38.38,0,0,1,0-.53.39.39,0,0,1,.54,0c.15.14,3.8,3.41,9.71.14a.39.39,0,0,1,.52.14.37.37,0,0,1-.15.51A11.11,11.11,0,0,1,244.23,158.91Z"/><path class="cls-7" d="M178.29,81c-.66.76-1.35,1.5-2.07,2.21a34.28,34.28,0,0,1-3.72,3.18c-.64.48-1.3.94-2,1.37a1.88,1.88,0,0,1-.24.14l.22-15.39A85.07,85.07,0,0,1,178.29,81Z"/><path class="cls-8" d="M167.29,89.6l-.71.35a35.32,35.32,0,0,1-8.16,2.75,36.61,36.61,0,0,1-7.31.74c-1.08,0-2.14,0-3.19-.14a31.75,31.75,0,0,1-3.25-.45c-.6-.1-1.18-.22-1.76-.36A33.84,33.84,0,0,1,138,91l7.41-24.75A55.22,55.22,0,0,1,157.73,66C162,66.47,165.43,80.15,167.29,89.6Z"/><path class="cls-7" d="M157.73,66l-11.27.7s-1.13,11.53-1.79,26.12c-.6-.1-1.18-.22-1.76-.36a34.86,34.86,0,0,1-9-3.44,4.79,4.79,0,0,1-.45-.25,29.12,29.12,0,0,1-2.61-1.62,26.35,26.35,0,0,1-2.12-1.57l-.24-.18c-1-.8-1.9-1.64-2.79-2.53-.25-.25-.49-.5-.73-.76.21-4.76.88-8.32,2.23-9.56,6-5.49,20.86-7.32,20.86-7.32l6.95-.1S156.1,65.48,157.73,66Z"/><path class="cls-7" d="M172.5,86.39c-.64.48-1.3.94-2,1.37a32,32,0,0,1-3.23,1.84l-.71.35c-1.11.53-2.24,1-3.4,1.42l0-.27c-2-20.45-5.2-24.8-5.4-25.06C162,67.48,170,70.57,171.48,73.9,172,75.17,172.35,80,172.5,86.39Z"/><path d="M150.65,39.79S143.33,23.68,135,31.87c-7,6.84,3.85,17.39,10.12,14.38S150.65,39.79,150.65,39.79Z"/><path d="M161.81,52.93a10.52,10.52,0,0,0,2.05-8.52c-.64-3.49-2.24-4.6-2.24-4.6S164,35,156.8,35.39a20.21,20.21,0,0,0-11.33,3.91,3.39,3.39,0,0,0-4.72,2.24c-1.41,3.78.13,9.32.13,9.32Z"/><path class="cls-5" d="M146.16,59l.34,8.62s1.67,2.41,6.8,2.63c3.83.16,5-1.82,5-1.82L157,60.89l-9.32-1.65Z"/><path d="M146.15,58.44a2.62,2.62,0,0,0,.29.82c2.12,4.23,9.08,5.75,11.29,5.86L157,60.89Z"/><path class="cls-5" d="M158.21,41.18s5,10.62,3.44,16.69-7.17,5.25-10.53,4.16a11,11,0,0,1-5-3.06,4.75,4.75,0,0,1-5.24-1.7c-2.16-2.81-.95-6.12.81-6.91s3.91.43,3.91.43L143.9,47.7S150.5,31.69,158.21,41.18Z"/><path d="M145.63,50.79s4.7.86,7.88-4.32,2.86-7.29,2.86-7.29l3.32,5.26s.67-3.69-.86-6-3.07-1.82-3.07-1.82L145.47,39.3l-2.61,8.2Z"/><path d="M158,54.86h-.1a.38.38,0,0,1-.26-.47c.58-2-.95-4.07-1-4.09a.36.36,0,0,1,.08-.52.38.38,0,0,1,.53.08c.08.1,1.77,2.42,1.08,4.74A.38.38,0,0,1,158,54.86Z"/><path d="M145.25,55.86a.35.35,0,0,1-.27-.11l-3-3a.37.37,0,0,1,0-.53.39.39,0,0,1,.54,0l3,3a.37.37,0,0,1,0,.53A.41.41,0,0,1,145.25,55.86Z"/><path d="M142.1,55.09a.39.39,0,0,1-.38-.32.39.39,0,0,1,.32-.43l2-.34a.39.39,0,0,1,.44.31.38.38,0,0,1-.31.43l-2.05.34Z"/><path d="M160,46h-.06l-1.94-.3a.37.37,0,1,1,.12-.74l1.94.3A.38.38,0,0,1,160,46Z"/><path d="M152,47.4a.38.38,0,0,1-.18-.71L155,45.07a.37.37,0,0,1,.51.16.36.36,0,0,1-.16.5l-3.15,1.63A.39.39,0,0,1,152,47.4Z"/><path d="M160.06,50.45a.38.38,0,0,1-.36-.26l-.63-1.93a.37.37,0,0,1,.06-.35l.59-.74a.39.39,0,0,1,.54-.06.37.37,0,0,1,.06.53l-.47.58.57,1.74a.37.37,0,0,1-.24.47Z"/><path d="M153.8,51a.38.38,0,0,1-.36-.26l-.63-1.93a.35.35,0,0,1,.07-.35l.82-1a.38.38,0,0,1,.53-.05.36.36,0,0,1,.05.53l-.68.81.56,1.73a.38.38,0,0,1-.24.48Z"/><path d="M156.49,57.71c-1.37,0-2.88-1.43-3.08-1.62a.38.38,0,0,1,0-.54.4.4,0,0,1,.54,0c.5.49,2.12,1.78,3,1.31a.39.39,0,0,1,.52.14.37.37,0,0,1-.15.51A1.61,1.61,0,0,1,156.49,57.71Z"/><path class="cls-7" d="M130.84,87.18a26.35,26.35,0,0,1-2.12-1.57l-.24-.18c-1-.8-1.9-1.64-2.79-2.53a36.08,36.08,0,0,1-2.66-3q-.91-1.16-1.71-2.37a62.65,62.65,0,0,1,8.75-7Z"/><path class="cls-6" d="M154.08,70.62a7.57,7.57,0,0,1-.81,0,17.31,17.31,0,0,1-7-2.69.37.37,0,0,1-.1-.52.38.38,0,0,1,.53-.1,17,17,0,0,0,6.63,2.56c3.39.31,4.54-1.55,4.59-1.63a.38.38,0,0,1,.66.38C158.54,68.67,157.36,70.62,154.08,70.62Z"/><path class="cls-9" d="M51.58,221a15,15,0,0,0-14.93-.14,10.92,10.92,0,0,0-5.56,12.65s-6.35,7.84-3.38,15.62,16.15,10,22,1.22-3.44-16.61-3.44-16.61S53.82,233.67,51.58,221Z"/><path class="cls-10" d="M84.51,261.89A36.18,36.18,0,0,1,81.57,265a35.13,35.13,0,0,1-6.92,5.1A36.89,36.89,0,0,1,78.79,253,102,102,0,0,0,84.51,261.89Z"/><path class="cls-9" d="M70.41,227.89s2.92-8.91,2.52-11.16-10-5.16-17.61-1.66-8.14,13.37-6.42,17.46c4.43,10.51,13.62,5.67,13.62,5.67S77.18,233.8,70.41,227.89Z"/><path class="cls-11" d="M81.57,265a35.13,35.13,0,0,1-6.92,5.1,36,36,0,0,1-23.9,4.07A32.39,32.39,0,0,1,46,273c.39-7.43.9-15.09,1.54-20.24.4-3.3.86-5.56,1.37-6.1a6.22,6.22,0,0,1,2.64-1.3,29.17,29.17,0,0,1,7.74-1,33.87,33.87,0,0,1,9.75,1.25,18.82,18.82,0,0,1,7.64,4.13A9.53,9.53,0,0,1,78.79,253,44.52,44.52,0,0,1,81.57,265Z"/><path class="cls-10" d="M69.07,239.54v7.66s.3.74-3.39.65c-4.94-.15-6.62-2.27-6.62-2.27L58.55,238l1.5.23Z"/><path d="M69.09,240v3.84c-2.33-.18-6.59-1-8.44-4.52a2.38,2.38,0,0,1-.28-.76l8.71,1.38Z"/><path class="cls-10" d="M69.83,221.55s4.85,9.81,3.49,15.49-6.59,5-9.74,4.06a10.3,10.3,0,0,1-4.68-2.78A4.43,4.43,0,0,1,54,236.83c-2-2.58-1-5.68.64-6.45s3.65.33,3.65.33l-1.67-2.84S62.48,212.83,69.83,221.55Z"/><path d="M69.88,234.33l-.1,0a.38.38,0,0,1-.27-.46c.51-1.83-.94-3.75-1-3.77a.38.38,0,1,1,.61-.45c.07.09,1.69,2.23,1.09,4.42A.38.38,0,0,1,69.88,234.33Z"/><path d="M58,235.47a.39.39,0,0,1-.27-.11l-2.86-2.78a.38.38,0,0,1,0-.53.39.39,0,0,1,.54,0l2.86,2.79a.38.38,0,0,1,0,.53A.43.43,0,0,1,58,235.47Z"/><path d="M55.05,234.8a.39.39,0,0,1-.38-.31.37.37,0,0,1,.31-.43l1.9-.36a.38.38,0,0,1,.44.3.38.38,0,0,1-.3.44l-1.9.35Z"/><path d="M66.73,237.51a2,2,0,0,1-.81-.17,3.76,3.76,0,0,1-1.85-2.08.35.35,0,0,1,.08-.38.39.39,0,0,1,.38-.1l4,1.16a.37.37,0,0,1,.17.61A3,3,0,0,1,66.73,237.51Zm-1.55-1.76a2.58,2.58,0,0,0,1.06.9,1.46,1.46,0,0,0,1.4-.19Z"/><path d="M63.26,227.24a.45.45,0,0,1-.16,0,.38.38,0,0,1-.18-.5,2.36,2.36,0,0,1,2.48-1.08.38.38,0,1,1-.13.74s-1.25-.2-1.66.66A.4.4,0,0,1,63.26,227.24Z"/><path d="M68.7,225.9a.36.36,0,0,1-.2-.06.36.36,0,0,1-.12-.51,1.59,1.59,0,0,1,1.1-.76,2.63,2.63,0,0,1,1.8.59.36.36,0,0,1,.06.52.39.39,0,0,1-.54.06,1.82,1.82,0,0,0-1.21-.43.81.81,0,0,0-.56.42A.4.4,0,0,1,68.7,225.9Z"/><path d="M70.75,230.12a.38.38,0,0,1-.37-.31L70,228a.38.38,0,0,1,.07-.29l.69-.91a.38.38,0,0,1,.53-.07.36.36,0,0,1,.08.52l-.59.78.32,1.68a.38.38,0,0,1-.31.44Z"/><path d="M64.37,230.75a.38.38,0,0,1-.38-.31l-.31-1.86a.42.42,0,0,1,.1-.32l1-1a.38.38,0,0,1,.56.51l-.89.93.27,1.67a.37.37,0,0,1-.31.43Z"/><path class="cls-9" d="M58.27,230.71s4.35-2.39,5.84-5.59a13,13,0,0,0,1.5-4.78s.72,2,2.35,2.47a12.56,12.56,0,0,0,2.64.45l1.14,2.9-.92-7a40.25,40.25,0,0,0-5-2.13c-.58,0-7.93,1.58-8.34,2s-2.54,6.19-2.54,6.19l-.07,2.56Z"/><path class="cls-10" d="M50.75,274.19A32.39,32.39,0,0,1,46,273,35.58,35.58,0,0,1,33.46,266a54,54,0,0,1,6.44-10A64.31,64.31,0,0,1,49,246.69l.42,1.91a59.4,59.4,0,0,1,1.37,12.68C50.74,265.56,50.75,269.68,50.75,274.19Z"/><path class="cls-6" d="M65.57,248.21a11.31,11.31,0,0,1-7.29-2.7.37.37,0,0,1,0-.53.38.38,0,0,1,.53,0,10.41,10.41,0,0,0,10.92,1.64.38.38,0,1,1,.29.7A12,12,0,0,1,65.57,248.21Z"/><path d="M127.1,259.8s-5.81-1.73-4-10.1c1.53-7.22,11.12-8.32,11.12-8.32a10.87,10.87,0,0,1-.7-9.86c2.22-5.19,5.32-6.17,5.32-6.17a10.48,10.48,0,0,1,3.1-7.51c3.36-3.29,7.95.16,7.95.16s8.69-1.86,14.06,2.68,3.28,12.38,3.28,12.38,8.54,3,10.62,11.93-3.31,13.67-3.31,13.67Z"/><path class="cls-8" d="M183.85,254.59a35.82,35.82,0,0,1-61.6,4.8c6.16-8.09,13.86-14,23.36-14.78,14.64-1.27,23.84,1.51,33.52,6.63A25.5,25.5,0,0,1,183.85,254.59Z"/><path class="cls-5" d="M156.37,239.94l.37,5.85a9,9,0,0,1-5,2.2c-3.86.28-5.41-1.73-5.41-1.73l-.34-7.7Z"/><path d="M156.37,239.93s-1.61,5.68-6.42,4.49c-3.48-.86-3.9-5.24-3.9-5.24Z"/><path class="cls-5" d="M143.44,223.93s-1.46,10.58,2.27,15.4,8.14,3.1,10.07,1.47a8.87,8.87,0,0,0,3-5.08s3.77.52,4.85-2.54a4.13,4.13,0,0,0-3.21-5.68c-1.87-.05-2.07.3-2.07.3l.36-3.39S146.66,212.61,143.44,223.93Z"/><path class="cls-5" d="M145.51,228.74s-5.78-2.07-6,2.26c-.23,5,5.83,4.74,5.83,4.74Z"/><path d="M159.27,228.08s-1.93.92-6.26-1.85-3.32-6.38-3.32-6.38-5.49,3.82-6.52,8.28-2.41-10.22,4.06-10.29S163.6,221.4,159.27,228.08Z"/><path d="M142.93,233.44a.4.4,0,0,1-.32-.17l-2.06-3.09a.37.37,0,0,1,.11-.52.4.4,0,0,1,.53.11l2.06,3.08a.36.36,0,0,1-.11.52A.33.33,0,0,1,142.93,233.44Z"/><path d="M159.2,232.66a.39.39,0,0,1-.27-.11.38.38,0,0,1,0-.54l2.74-2.58a.38.38,0,0,1,.54,0,.37.37,0,0,1,0,.53l-2.74,2.59A.39.39,0,0,1,159.2,232.66Z"/><path d="M161.89,233a.43.43,0,0,1-.22-.06l-1.76-1.17a.36.36,0,0,1-.11-.52.39.39,0,0,1,.53-.1l1.77,1.17a.37.37,0,0,1,.1.52A.36.36,0,0,1,161.89,233Z"/><path d="M140.68,232.6a.39.39,0,0,1-.38-.35.38.38,0,0,1,.36-.4l1.61-.12a.39.39,0,0,1,.41.35.38.38,0,0,1-.36.4l-1.61.12Z"/><path d="M149.6,234.79a.37.37,0,0,1-.37-.3,9.85,9.85,0,0,1,.26-5.28A.38.38,0,0,1,150,229a.36.36,0,0,1,.22.48,9.52,9.52,0,0,0-.23,4.86.37.37,0,0,1-.29.45Z"/><path d="M151,237.68a3.85,3.85,0,0,1-2.22-.9.36.36,0,0,1-.11-.39.39.39,0,0,1,.31-.27l3.64-.52a.4.4,0,0,1,.36.15.37.37,0,0,1,0,.38C153,236.19,152.3,237.68,151,237.68Zm-.9-1a2.24,2.24,0,0,0,.89.21,1.28,1.28,0,0,0,.88-.46Z"/><path d="M145.82,226.35a.38.38,0,0,1-.26-.65,3.73,3.73,0,0,1,2.18-.73.38.38,0,0,1,.38.37.37.37,0,0,1-.37.38,3,3,0,0,0-1.67.53A.39.39,0,0,1,145.82,226.35Z"/><path d="M154.14,226.71a.4.4,0,0,1-.27-.11,3,3,0,0,0-1.65-.58.37.37,0,0,1-.36-.39.38.38,0,0,1,.39-.36,3.69,3.69,0,0,1,2.15.79.38.38,0,0,1-.26.65Z"/><path class="cls-12" d="M151.26,248.63h0c-4.84,0-5.83-2.79-5.87-2.91a.37.37,0,0,1,.24-.47.38.38,0,0,1,.48.23c0,.11.9,2.38,5.15,2.4h0c3.8,0,5.23-2,5.29-2.11a.39.39,0,0,1,.53-.1.38.38,0,0,1,.11.52C157.12,246.29,155.49,248.63,151.26,248.63Z"/><path d="M143.17,228.13s-5.1-6.37-1.27-10.29,14.84-5.87,20,1.53c3.69,5.25-2.68,8.71-2.68,8.71l-7.08-7.15-2.5-1.08-4.18,1.08Z"/><path d="M153.82,230.32a.39.39,0,0,1-.38-.39l.06-1.6-1-.75a.38.38,0,0,1-.08-.53.4.4,0,0,1,.54-.07l1.17.86a.38.38,0,0,1,.16.31l-.06,1.81A.39.39,0,0,1,153.82,230.32Z"/><path d="M147.12,230.32a.38.38,0,0,1-.38-.39l0-1.6-1-.75a.37.37,0,0,1-.08-.53.39.39,0,0,1,.53-.07l1.18.86a.37.37,0,0,1,.15.31L147.5,230A.38.38,0,0,1,147.12,230.32Z"/><path class="cls-13" d="M160.67,183.05a36.1,36.1,0,0,1-15.67.77c-1-.18-2.05-.4-3.05-.66a33.65,33.65,0,0,1-4-1.3l2.52-25,13.76-3.2,5.47,1.6Z"/><path d="M142.57,131.45s-5.22-6.34-3.81-7.18a2.4,2.4,0,0,1,2.74.44s10.65-1.65,14.53-.57,6.48,7.35,6.48,7.35,2-.18,2.78,2.44-4.91,15.48-8.57,14.81S142.57,131.45,142.57,131.45Z"/><path class="cls-10" d="M156.68,146.67l.18,8.75s-1.55,2.55-6.74,3.07c-3.87.39-5.25-.45-5.25-.45l.45-4.44.44-4.34,9.35-2.22Z"/><path d="M155.11,147a2.77,2.77,0,0,1-.24.85c-1.9,4.41-7.32,5.47-9.55,5.71l.44-4.34Z"/><path class="cls-10" d="M143.37,129.35s-4.43,11.07-2.47,17.13,7.59,4.9,10.94,3.59a11.21,11.21,0,0,0,4.84-3.4,4.8,4.8,0,0,0,5.21-2c2-3,.59-6.26-1.24-6.95s-3.94.66-3.94.66l1.57-3.23S150.61,119.27,143.37,129.35Z"/><path d="M143.37,129.35s3.46-1.37,4.94-.17,3.21,11.35,8.4,9.17,2.5-8.68,2.5-8.68S146.17,118.66,143.37,129.35Z"/><path class="cls-11" d="M145.32,153.6s-1.62,14.77-3.37,29.56a35.52,35.52,0,0,1-22.06-17.08c2.82-2.91,7.34-7.79,11.23-9.34A51.41,51.41,0,0,1,145.32,153.6Z"/><path class="cls-3" d="M277.75,256.1A35.85,35.85,0,0,1,234,272.55a34.92,34.92,0,0,1-5.57-2.61c.93-10.38,1.89-19.1,2.61-20.74,1.27-2.9,9.8-4.95,15.6-6,3.11-.57,5.44-.87,5.44-.87a38.47,38.47,0,0,1,20.74,8.11A28.26,28.26,0,0,1,277.75,256.1Z"/><path class="cls-14" d="M238,215.16s-4,4.5-1.82,9.47,4.61-9,4.61-9Z"/><path class="cls-5" d="M251.63,235.4l.15,8.93s-1.59,2.6-6.89,3.11c-3.95.39-5.35-.47-5.35-.47l.47-4.54.47-4.42,9.55-2.23Z"/><path d="M250,235.78c0,.24,1.46,1,1.32,1.34-2,4.5-9.23,6.76-11.51,7l.64-6.11Z"/><path class="cls-5" d="M239.75,215.6a8.54,8.54,0,0,0-2.63,3.87c-1.18,3.45-3.58,11.5-2,16.44,2,6.42,7.91,5.22,11.4,3.86a11.66,11.66,0,0,0,5.06-3.58,5,5,0,0,0,5.44-2.12c2.11-3.13.63-6.61-1.28-7.35s-4.11.68-4.11.68l1.64-3.41S246.65,210.07,239.75,215.6Z"/><path d="M252.1,231.74a.39.39,0,0,1-.31-.15.37.37,0,0,1,.08-.52l3.32-2.44a.38.38,0,0,1,.45.61l-3.31,2.43A.39.39,0,0,1,252.1,231.74Z"/><path d="M255.82,231.63h-.08L253,231a.37.37,0,0,1-.28-.45.38.38,0,0,1,.46-.28l2.7.64a.37.37,0,0,1-.09.74Z"/><path d="M237.08,226H237a.38.38,0,0,1-.27-.46l.53-2.06a.38.38,0,0,1,.74.18l-.54,2.06A.38.38,0,0,1,237.08,226Z"/><path d="M242.83,226.32h-.09a.38.38,0,0,1-.28-.46l.53-2.06a.39.39,0,0,1,.47-.27.37.37,0,0,1,.27.46L243.2,226A.38.38,0,0,1,242.83,226.32Z"/><path class="cls-15" d="M236.76,221.52a.37.37,0,0,1-.38-.33.39.39,0,0,1,.34-.42l1.72-.18a.38.38,0,1,1,.08.75l-1.72.18Z"/><path class="cls-15" d="M244.56,222.88a.4.4,0,0,1-.15,0l-2.34-1a.37.37,0,0,1-.2-.49.38.38,0,0,1,.5-.2l2.34,1a.37.37,0,0,1,.2.49A.37.37,0,0,1,244.56,222.88Z"/><path class="cls-14" d="M251.62,227.4s-.94,3.72-1.67,3.26-1.4-5.81-.86-8.21.94-3.61.94-3.61-9.91-.87-12.53-3.19,2.91-3.81,8.55-2.76,7.87,3.14,7.87,3.14,3.54-.52,4.86,1.61-1.69,10.19-1.69,10.19S256.2,225.81,251.62,227.4Z"/><path class="cls-14" d="M232.72,231.24s2.77-3,4.18-2.57,1.92,2.48,1.92,2.48,1.67-2.28,3.52-1.64,5.8.88,5.84,1.51-1.11.86-1.11.86S237.76,232.94,232.72,231.24Z"/><path class="cls-14" d="M251.62,227.4s-.17,6-.05,8.79-7.68,7.08-13.07,4.7-3.91-9.34-3.91-9.34l4.8.44a9.43,9.43,0,0,1,2.37-.88,6.33,6.33,0,0,1,2.93.42Z"/><path d="M41.21,53.66s-3.81-19.9,11-23.55,15.67,17,15.67,17,16.09,3,16.2,18.42c.13,19.26-18.77,16-18.77,16L47.38,74.4S29.46,64.79,41.21,53.66Z"/><path class="cls-13" d="M85.55,78.5A35.57,35.57,0,0,1,66.06,92.14l-.51.14a36.39,36.39,0,0,1-9.11,1.16A35.62,35.62,0,0,1,27,78c4.77-6.43,10.76-11.3,14.83-13,6-2.56,15.57-4.27,24.39-1.78h.09a26.89,26.89,0,0,1,7.63,3.48A38,38,0,0,1,85.55,78.5Z"/><path class="cls-10" d="M49.46,57.12v.22l.18,4,.13,3.14s-.27.73,3.45.5c5-.34,6.58-2.45,6.58-2.45L60,55.17l-1.51.28Z"/><path d="M49.46,57.34l.18,4c2.42-.29,6.83-1.32,8.61-5.07a2.93,2.93,0,0,0,.25-.81l-9,1.81Z"/><path class="cls-10" d="M47.88,38.14s-4.63,10.44-3,16.31,7.1,4.94,10.34,3.81A10.63,10.63,0,0,0,60,55.16a4.62,4.62,0,0,0,5.07-1.76c2-2.78.77-6-1-6.7s-3.79.5-3.79.5l1.62-3S55.16,28.74,47.88,38.14Z"/><path d="M49.32,36.6a8.68,8.68,0,0,0,5.34,8.08c5.67,2.52,9.46,2,9.46,2l-.37-7.24-7.1-7.6-6.35,2Z"/><polygon points="59.95 45.6 59.97 48.76 62.83 45.99 59.95 45.6"/><path class="cls-13" d="M86.84,76.56c-.28.46-.58.93-.89,1.38l-.4.56A35.57,35.57,0,0,1,66.06,92.14l-.51.14L66,63.14l.14,0h.09c1.75.29,13.24,2.53,19.41,11.44A16.58,16.58,0,0,1,86.84,76.56Z"/><path class="cls-8" d="M52.15,65.42A18.84,18.84,0,0,1,48.09,65a.38.38,0,1,1,.18-.73c.07,0,6.79,1.6,11.4-1.72a.38.38,0,0,1,.53.09.36.36,0,0,1-.08.52A13.65,13.65,0,0,1,52.15,65.42Z"/><path d="M46.57,42a.39.39,0,0,1-.37-.27.38.38,0,0,1,.25-.47l2.12-.65a.38.38,0,0,1,.47.25.37.37,0,0,1-.25.47l-2.11.65Z"/><path d="M60.55,52.07a.38.38,0,0,1-.26-.65l3.27-3a.39.39,0,0,1,.54,0,.38.38,0,0,1,0,.53l-3.27,3A.43.43,0,0,1,60.55,52.07Z"/><path d="M63.86,51.68a.4.4,0,0,1-.15,0l-2-.84a.38.38,0,0,1-.2-.5.39.39,0,0,1,.5-.19L64,51a.37.37,0,0,1,.2.49A.37.37,0,0,1,63.86,51.68Z"/><path d="M47.22,47.22h-.08a.37.37,0,0,1-.29-.44l.39-1.85-.77-.87a.37.37,0,0,1,0-.53.39.39,0,0,1,.54,0l.89,1a.38.38,0,0,1,.08.32l-.43,2A.37.37,0,0,1,47.22,47.22Z"/><path d="M53.61,47.54h-.08a.38.38,0,0,1-.29-.45l.39-1.85-.77-.87a.37.37,0,0,1,0-.53.39.39,0,0,1,.54,0l.89,1a.38.38,0,0,1,.08.32l-.43,2A.37.37,0,0,1,53.61,47.54Z"/><path d="M48.48,51.81a.38.38,0,0,1-.37-.3c-.71-3.34.93-5,1-5.09a.38.38,0,0,1,.55.53c-.07.06-1.42,1.49-.8,4.41a.37.37,0,0,1-.3.44Z"/><path d="M51.93,55c-.23,0-.77-.1-1.9-1.34a.54.54,0,0,1-.13-.51.61.61,0,0,1,.41-.4c2.72-.8,3.09-.53,3.25-.41a.71.71,0,0,1,.19.84C53.54,53.89,52.67,55,52,55Zm-1.12-1.61a3.15,3.15,0,0,0,1.14.86,1.68,1.68,0,0,0,.63-.54A2.46,2.46,0,0,0,53,53,10.18,10.18,0,0,0,50.81,53.41Z"/><path class="cls-8" d="M39.23,76.39s-3.68,3.89-3,10.81c-.22-.14-.43-.29-.64-.44l-.18-.13a14.7,14.7,0,0,1,3.26-10.76.39.39,0,0,1,.54,0A.38.38,0,0,1,39.23,76.39Z"/><path class="cls-5" d="M60,139.64s5.73-2.68,6.35,1.75c.73,5.13-5.51,5.42-5.51,5.42Z"/><path d="M63.05,144.2a.37.37,0,0,1-.18,0,.36.36,0,0,1-.16-.5l1.82-3.36a.39.39,0,0,1,.51-.16.37.37,0,0,1,.16.51L63.38,144A.38.38,0,0,1,63.05,144.2Z"/><path d="M63.61,143.16a.37.37,0,0,1-.38-.36.38.38,0,0,1,.37-.39l1.66,0a.38.38,0,1,1,0,.75l-1.67,0Z"/><path class="cls-8" d="M86.78,167.58A35,35,0,0,1,78.25,177c-.22.18-.44.35-.67.51A36,36,0,0,1,43,181.76l-.71-.31a35.35,35.35,0,0,1-12.69-9.16,18.94,18.94,0,0,1,8.82-11.14c12.11-6.71,30.24-6.71,38.3-2.94A24.53,24.53,0,0,1,86.78,167.58Z"/><path d="M62.33,134.55s3.78-6,3-8.59-4.18,0-4.18,0-.77-5.53-5-4.46c-5.57,1.43-11.1,11.09-11.1,11.09s-2.84-.7-3.8,1.75c-1.11,2.85-.14,6.05,1.65,8.89s6.64.5,6.64.5Z"/><path class="cls-5" d="M50.57,152l.2,6.59a12.69,12.69,0,0,0,5.51,1.21c4.1-.08,5.42-1.86,5.42-1.86l-.37-8.55Z"/><path d="M50.57,151.81s2.59,4.95,7.2,4.09c3.73-.69,3.57-5.89,3.57-5.89Z"/><path class="cls-5" d="M62.33,134.55s2,11.46,0,15.94c-2.32,5-8.28,4.35-10.41,2.86a12.68,12.68,0,0,1-4.12-5.26S44,149,42.55,146a4.24,4.24,0,0,1,2.73-6.13c1.92-.23,2.16.11,2.16.11l-.7-3.44S57.92,123.24,62.33,134.55Z"/><path d="M47.44,139.93a9,9,0,0,0,5.3-2.12A8.06,8.06,0,0,0,55.52,131s6,3.39,7.5,7.86,1.47-10.7-5.17-10.15S42.34,133.49,47.44,139.93Z"/><path d="M47,145a.38.38,0,0,1-.24-.09l-3.06-2.39a.37.37,0,0,1-.07-.53.39.39,0,0,1,.54-.06l3.07,2.4a.37.37,0,0,1,.06.52A.38.38,0,0,1,47,145Z"/><path d="M44.27,145.55a.41.41,0,0,1-.3-.14.37.37,0,0,1,.06-.53l1.7-1.36a.38.38,0,0,1,.53,0,.37.37,0,0,1,0,.53l-1.7,1.37A.43.43,0,0,1,44.27,145.55Z"/><path d="M53.34,141.63a.39.39,0,0,1-.38-.34l-.18-1.85a.37.37,0,0,1,.34-.41.38.38,0,0,1,.42.33l.18,1.86a.38.38,0,0,1-.34.41Z"/><path d="M60.66,141.36a.39.39,0,0,1-.38-.34l-.18-1.85a.38.38,0,0,1,.76-.08l.18,1.85a.37.37,0,0,1-.34.41Z"/><path d="M58,145.94h-.06a.38.38,0,0,1-.32-.43,9.61,9.61,0,0,0-.56-5,.38.38,0,0,1,.7-.31,10.34,10.34,0,0,1,.62,5.41A.38.38,0,0,1,58,145.94Z"/><path d="M61.31,137.48a.35.35,0,0,1-.24-.08,3,3,0,0,0-1.76-.44.38.38,0,1,1,0-.75,3.77,3.77,0,0,1,2.27.6.38.38,0,0,1-.23.67Z"/><path d="M52.72,137.76a.41.41,0,0,1-.3-.14.37.37,0,0,1,.07-.53,3.87,3.87,0,0,1,2.28-.57.39.39,0,0,1,.36.4.37.37,0,0,1-.41.35,3.06,3.06,0,0,0-1.76.42A.42.42,0,0,1,52.72,137.76Z"/><path d="M46.55,140s1.34,3.35,1.78,3.2-.52-5.49-1.83-5.66S46.55,140,46.55,140Z"/><path class="cls-7" d="M56.31,160.12a18.44,18.44,0,0,1-6.89-1.55.37.37,0,0,1-.18-.5.39.39,0,0,1,.51-.17c.1,0,9.51,4.39,13-2a.39.39,0,0,1,.52-.15.38.38,0,0,1,.15.51A7.62,7.62,0,0,1,56.31,160.12Z"/><path d="M56.6,148.83a2,2,0,0,1-1.92-1.12.39.39,0,0,1,.21-.49.4.4,0,0,1,.5.21c0,.1.46.94,1.9.55a.38.38,0,0,1,.47.26.36.36,0,0,1-.27.46A3.42,3.42,0,0,1,56.6,148.83Z"/><path class="cls-7" d="M43.88,177.3,43,181.76l-.71-.31.83-4.29a.39.39,0,0,1,.45-.3A.37.37,0,0,1,43.88,177.3Z"/><path class="cls-3" d="M266,87.19a35.6,35.6,0,0,1-20.26,6.25h-.84a35.65,35.65,0,0,1-22.39-8.5,36.47,36.47,0,0,1-3-2.85c2.5-5.34,8.3-15.41,17.37-17.83l.31-.08c10.5-2.62,24.74-.18,27.58,1.92C266,67,266.2,76.43,266,87.19Z"/><path d="M239.4,45.5s-5.91-7.19-3.43-10,6.31,0,6.31,0,.21-3.38,4-3,6.13,4.36,6.13,4.36,3.36-3.31,5.66,0,.71,8.72.71,8.72,2.65-.38,1.95,2.69-4.89,6.24-4.89,6.24Z"/><path class="cls-10" d="M252.32,56.83l.12,8.12s-1.46,2.35-6.27,2.8c-3.59.34-4.86-.44-4.86-.44l.44-4.12.44-4,8.68-2Z"/><path d="M250.87,57.17a2.7,2.7,0,0,1-.23.79c-1.79,4.08-6.82,5-8.89,5.23l.44-4Z"/><path class="cls-10" d="M240.1,40.7s-4.18,10.23-2.4,15.86,7,4.59,10.11,3.4a10.4,10.4,0,0,0,4.52-3.12A4.47,4.47,0,0,0,257.17,55c1.89-2.75.59-5.8-1.11-6.46s-3.65.59-3.65.59l1.47-3S246.87,31.4,240.1,40.7Z"/><path d="M252.77,53.55a.38.38,0,0,1-.23-.68l3.1-2.26a.39.39,0,0,1,.54.08.38.38,0,0,1-.08.53L253,53.48A.34.34,0,0,1,252.77,53.55Z"/><path d="M256.15,53.46h-.09l-2.45-.59a.37.37,0,0,1-.28-.45.38.38,0,0,1,.46-.28l2.45.59a.37.37,0,0,1-.09.74Z"/><path d="M246.79,45.46a.38.38,0,0,1-.36-.25,1.86,1.86,0,0,0-2-1.32.39.39,0,0,1-.44-.31.37.37,0,0,1,.3-.43A2.6,2.6,0,0,1,247.14,45a.38.38,0,0,1-.23.48Z"/><path d="M239.06,44.67a.38.38,0,0,1-.25-.67c.37-.3,1.34-1.11,1.78-.62a.38.38,0,0,1,0,.53.4.4,0,0,1-.36.07,3.16,3.16,0,0,0-.89.6A.4.4,0,0,1,239.06,44.67Z"/><path d="M240.55,52.37a.38.38,0,0,1-.3-.15c-1.34-1.73,1.23-4.46,1.34-4.58a.39.39,0,0,1,.54,0,.37.37,0,0,1,0,.53c-.63.66-2.08,2.59-1.29,3.6a.38.38,0,0,1-.08.53A.38.38,0,0,1,240.55,52.37Z"/><path d="M239.88,48.74h0a.38.38,0,0,1-.33-.42l.28-1.91a.38.38,0,0,1,.76.1l-.28,1.91A.38.38,0,0,1,239.88,48.74Z"/><path d="M245.56,48.75a.38.38,0,0,1-.38-.4l.12-1.92a.37.37,0,0,1,.41-.35.36.36,0,0,1,.35.39l-.12,1.93A.37.37,0,0,1,245.56,48.75Z"/><path d="M239.27,43a3.47,3.47,0,0,1,2.92-1.68,4.48,4.48,0,0,1,3.28,1.37s-.86,3.42,2,5.19a6.9,6.9,0,0,0,5,1.24l2-.74,1.45-2.93-6-6.15-7.64-3.85L238.46,39Z"/><path d="M242.77,55.58h-.16a.38.38,0,1,1,.06-.75A2.39,2.39,0,0,0,245,53.5a.4.4,0,0,1,.51-.19.38.38,0,0,1,.19.5A3.13,3.13,0,0,1,242.77,55.58Z"/><path class="cls-3" d="M275.76,77.23a35.45,35.45,0,0,1-9.72,10,36,36,0,0,1-6.67,3.6l5.46-24.7A46.88,46.88,0,0,1,275.76,77.23Z"/><path class="cls-7" d="M245,68.17a19.75,19.75,0,0,1-4.75-.59.38.38,0,0,1-.26-.47.39.39,0,0,1,.47-.26,18.65,18.65,0,0,0,5.73.53A15.39,15.39,0,0,0,253,64.65a.4.4,0,0,1,.54.07.38.38,0,0,1-.08.53,15.79,15.79,0,0,1-7.26,2.88C245.77,68.16,245.35,68.17,245,68.17Z"/><path class="cls-6" d="M149,158.94a16.37,16.37,0,0,1-4.23-.54.36.36,0,0,1-.26-.46.38.38,0,0,1,.47-.26c.07,0,7.6,2.1,11.59-2.5a.37.37,0,0,1,.53,0,.38.38,0,0,1,.05.53A10.47,10.47,0,0,1,149,158.94Z"/><path class="cls-11" d="M184,162.61a35.42,35.42,0,0,1-23.33,20.44c-.72.21-1.46.39-2.21.54-1.08-11.54-1.66-31.81-1.66-31.81S172.2,151,184,162.61Z"/><path d="M157.11,143.23a.4.4,0,0,1-.27-.11.38.38,0,0,1,0-.53l2.8-2.85a.38.38,0,0,1,.54,0,.37.37,0,0,1,0,.53l-2.8,2.85A.36.36,0,0,1,157.11,143.23Z"/><path d="M160.89,142.53h-.09l-2.42-.62a.37.37,0,0,1-.27-.46.38.38,0,0,1,.46-.27l2.42.62a.38.38,0,0,1-.1.74Z"/><path d="M142.64,134.32a.34.34,0,0,1-.23-.08.37.37,0,0,1-.08-.51,2.69,2.69,0,0,1,2.6-.72.38.38,0,0,1,.32.43.4.4,0,0,1-.43.32c-1.36-.2-1.86.39-1.88.42A.39.39,0,0,1,142.64,134.32Z"/><path d="M151,134.43a.38.38,0,0,1-.24-.09,2.54,2.54,0,0,0-2.12-.51.37.37,0,0,1-.47-.26.37.37,0,0,1,.26-.46,3.32,3.32,0,0,1,2.82.65.38.38,0,0,1-.25.67Z"/><path d="M143,138.68a.38.38,0,0,1-.38-.4l.17-2a.37.37,0,0,1,.41-.34.37.37,0,0,1,.35.4l-.17,2A.38.38,0,0,1,143,138.68Z"/><path d="M149.13,138.93a.38.38,0,0,1-.38-.4l.17-2a.38.38,0,0,1,.41-.35.39.39,0,0,1,.35.41l-.17,2A.39.39,0,0,1,149.13,138.93Z"/><path d="M144.5,143.55a.37.37,0,0,1-.35-.22,5.13,5.13,0,0,1,.73-5.27.39.39,0,0,1,.53,0,.36.36,0,0,1,.05.53,4.37,4.37,0,0,0-.62,4.47.38.38,0,0,1-.19.5Z"/><path d="M146.92,145.38a.39.39,0,0,1-.39-.37.38.38,0,0,1,.38-.38,2,2,0,0,0,1.81-1.12.39.39,0,0,1,.5-.2.37.37,0,0,1,.21.49A2.82,2.82,0,0,1,146.92,145.38Z"/><path d="M240.14,233.36a.39.39,0,0,1-.38-.33.4.4,0,0,1,.34-.42,3.07,3.07,0,0,0,2.24-1.35.39.39,0,0,1,.52-.17.38.38,0,0,1,.17.5,3.85,3.85,0,0,1-2.85,1.77Z"/><path d="M238.65,230.49a.38.38,0,0,1-.34-.21c-1.34-2.64.58-5.41.67-5.53a.38.38,0,0,1,.53-.09.37.37,0,0,1,.09.52s-1.75,2.53-.61,4.76a.38.38,0,0,1-.17.51A.59.59,0,0,1,238.65,230.49Z"/><path class="cls-6" d="M242.41,247.85a22.07,22.07,0,0,1-4.89-.55.38.38,0,0,1,.19-.73c.1,0,9.43,2.33,14.1-3.11a.39.39,0,0,1,.54-.05.37.37,0,0,1,0,.53C249.67,247.11,245.61,247.85,242.41,247.85Z"/></svg>